<?xml version="1.0" encoding="UTF-8" standalone="no"?>
<!DOCTYPE svg PUBLIC "-//W3C//DTD SVG 1.1//EN"
 "http://www.w3.org/Graphics/SVG/1.1/DTD/svg11.dtd">
<!-- Generated by graphviz version 9.0.0 (20230911.1827)
 -->
<!-- Title: dependency&#45;cruiser output Pages: 1 -->
<svg width="887pt" height="322pt"
 viewBox="0.00 0.00 886.50 322.00" xmlns="http://www.w3.org/2000/svg" xmlns:xlink="http://www.w3.org/1999/xlink">
<g id="graph0" class="graph" transform="scale(1 1) rotate(0) translate(4 318)">
<title>dependency&#45;cruiser output</title>
<polygon fill="white" stroke="none" points="-4,4 -4,-318 882.5,-318 882.5,4 -4,4"/>
<g id="clust1" class="cluster">
<title>cluster_src</title>
<path fill="#ffffff" stroke="black" stroke-width="2" d="M20,-8C20,-8 858.5,-8 858.5,-8 864.5,-8 870.5,-14 870.5,-20 870.5,-20 870.5,-294 870.5,-294 870.5,-300 864.5,-306 858.5,-306 858.5,-306 20,-306 20,-306 14,-306 8,-300 8,-294 8,-294 8,-20 8,-20 8,-14 14,-8 20,-8"/>
<text text-anchor="middle" x="439.25" y="-293.45" font-family="Helvetica,sans-Serif" font-weight="bold" font-size="9.00">src</text>
</g>
<g id="clust2" class="cluster">
<title>cluster_src/auth</title>
<path fill="#ffffff" stroke="black" stroke-width="2" d="M116.5,-29C116.5,-29 184.5,-29 184.5,-29 190.5,-29 196.5,-35 196.5,-41 196.5,-41 196.5,-69 196.5,-69 196.5,-75 190.5,-81 184.5,-81 184.5,-81 116.5,-81 116.5,-81 110.5,-81 104.5,-75 104.5,-69 104.5,-69 104.5,-41 104.5,-41 104.5,-35 110.5,-29 116.5,-29"/>
<text text-anchor="middle" x="150.5" y="-68.45" font-family="Helvetica,sans-Serif" font-weight="bold" font-size="9.00">auth</text>
</g>
<g id="clust3" class="cluster">
<title>cluster_src/graphql</title>
<path fill="#ffffff" stroke="black" stroke-width="2" d="M109.75,-89C109.75,-89 191.25,-89 191.25,-89 197.25,-89 203.25,-95 203.25,-101 203.25,-101 203.25,-129 203.25,-129 203.25,-135 197.25,-141 191.25,-141 191.25,-141 109.75,-141 109.75,-141 103.75,-141 97.75,-135 97.75,-129 97.75,-129 97.75,-101 97.75,-101 97.75,-95 103.75,-89 109.75,-89"/>
<text text-anchor="middle" x="150.5" y="-128.45" font-family="Helvetica,sans-Serif" font-weight="bold" font-size="9.00">graphql</text>
</g>
<g id="clust4" class="cluster">
<title>cluster_src/modules</title>
<path fill="#ffffff" stroke="black" stroke-width="2" d="M223.25,-50C223.25,-50 850.5,-50 850.5,-50 856.5,-50 862.5,-56 862.5,-62 862.5,-62 862.5,-268 862.5,-268 862.5,-274 856.5,-280 850.5,-280 850.5,-280 223.25,-280 223.25,-280 217.25,-280 211.25,-274 211.25,-268 211.25,-268 211.25,-62 211.25,-62 211.25,-56 217.25,-50 223.25,-50"/>
<text text-anchor="middle" x="536.88" y="-267.45" font-family="Helvetica,sans-Serif" font-weight="bold" font-size="9.00">modules</text>
</g>
<g id="clust5" class="cluster">
<title>cluster_src/modules/admin</title>
<path fill="#ffffff" stroke="black" stroke-width="2" d="M231.25,-58C231.25,-58 306.75,-58 306.75,-58 312.75,-58 318.75,-64 318.75,-70 318.75,-70 318.75,-98 318.75,-98 318.75,-104 312.75,-110 306.75,-110 306.75,-110 231.25,-110 231.25,-110 225.25,-110 219.25,-104 219.25,-98 219.25,-98 219.25,-70 219.25,-70 219.25,-64 225.25,-58 231.25,-58"/>
<text text-anchor="middle" x="269" y="-97.45" font-family="Helvetica,sans-Serif" font-weight="bold" font-size="9.00">admin</text>
</g>
<g id="clust6" class="cluster">
<title>cluster_src/modules/database</title>
<path fill="#ffffff" stroke="black" stroke-width="2" d="M754.25,-104C754.25,-104 842.5,-104 842.5,-104 848.5,-104 854.5,-110 854.5,-116 854.5,-116 854.5,-144 854.5,-144 854.5,-150 848.5,-156 842.5,-156 842.5,-156 754.25,-156 754.25,-156 748.25,-156 742.25,-150 742.25,-144 742.25,-144 742.25,-116 742.25,-116 742.25,-110 748.25,-104 754.25,-104"/>
<text text-anchor="middle" x="798.38" y="-143.45" font-family="Helvetica,sans-Serif" font-weight="bold" font-size="9.00">database</text>
</g>
<g id="clust7" class="cluster">
<title>cluster_src/modules/element&#45;ai</title>
<path fill="#ffffff" stroke="black" stroke-width="2" d="M357.88,-82C357.88,-82 481.38,-82 481.38,-82 487.38,-82 493.38,-88 493.38,-94 493.38,-94 493.38,-122 493.38,-122 493.38,-128 487.38,-134 481.38,-134 481.38,-134 357.88,-134 357.88,-134 351.88,-134 345.88,-128 345.88,-122 345.88,-122 345.88,-94 345.88,-94 345.88,-88 351.88,-82 357.88,-82"/>
<text text-anchor="middle" x="419.62" y="-121.45" font-family="Helvetica,sans-Serif" font-weight="bold" font-size="9.00">element&#45;ai</text>
</g>
<g id="clust8" class="cluster">
<title>cluster_src/modules/element</title>
<path fill="#ffffff" stroke="black" stroke-width="2" d="M535.88,-141C535.88,-141 618.88,-141 618.88,-141 624.88,-141 630.88,-147 630.88,-153 630.88,-153 630.88,-181 630.88,-181 630.88,-187 624.88,-193 618.88,-193 618.88,-193 535.88,-193 535.88,-193 529.88,-193 523.88,-187 523.88,-181 523.88,-181 523.88,-153 523.88,-153 523.88,-147 529.88,-141 535.88,-141"/>
<text text-anchor="middle" x="577.38" y="-180.45" font-family="Helvetica,sans-Serif" font-weight="bold" font-size="9.00">element</text>
</g>
<g id="clust9" class="cluster">
<title>cluster_src/modules/user&#45;liked</title>
<path fill="#ffffff" stroke="black" stroke-width="2" d="M374.38,-202C374.38,-202 464.88,-202 464.88,-202 470.88,-202 476.88,-208 476.88,-214 476.88,-214 476.88,-242 476.88,-242 476.88,-248 470.88,-254 464.88,-254 464.88,-254 374.38,-254 374.38,-254 368.38,-254 362.38,-248 362.38,-242 362.38,-242 362.38,-214 362.38,-214 362.38,-208 368.38,-202 374.38,-202"/>
<text text-anchor="middle" x="419.62" y="-241.45" font-family="Helvetica,sans-Serif" font-weight="bold" font-size="9.00">user&#45;liked</text>
</g>
<g id="clust10" class="cluster">
<title>cluster_src/modules/user</title>
<path fill="#ffffff" stroke="black" stroke-width="2" d="M654.25,-82C654.25,-82 722.25,-82 722.25,-82 728.25,-82 734.25,-88 734.25,-94 734.25,-94 734.25,-122 734.25,-122 734.25,-128 728.25,-134 722.25,-134 722.25,-134 654.25,-134 654.25,-134 648.25,-134 642.25,-128 642.25,-122 642.25,-122 642.25,-94 642.25,-94 642.25,-88 648.25,-82 654.25,-82"/>
<text text-anchor="middle" x="688.25" y="-121.45" font-family="Helvetica,sans-Serif" font-weight="bold" font-size="9.00">user</text>
</g>
<g id="clust11" class="cluster">
<title>cluster_src/modules/workshop&#45;recommendation</title>
<path fill="#ffffff" stroke="black" stroke-width="2" d="M338.75,-142C338.75,-142 500.5,-142 500.5,-142 506.5,-142 512.5,-148 512.5,-154 512.5,-154 512.5,-182 512.5,-182 512.5,-188 506.5,-194 500.5,-194 500.5,-194 338.75,-194 338.75,-194 332.75,-194 326.75,-188 326.75,-182 326.75,-182 326.75,-154 326.75,-154 326.75,-148 332.75,-142 338.75,-142"/>
<text text-anchor="middle" x="419.62" y="-181.45" font-family="Helvetica,sans-Serif" font-weight="bold" font-size="9.00">workshop&#45;recommendation</text>
</g>
<g id="clust12" class="cluster">
<title>cluster_src/modules/workshop</title>
<path fill="#ffffff" stroke="black" stroke-width="2" d="M532.5,-70C532.5,-70 622.25,-70 622.25,-70 628.25,-70 634.25,-76 634.25,-82 634.25,-82 634.25,-110 634.25,-110 634.25,-116 628.25,-122 622.25,-122 622.25,-122 532.5,-122 532.5,-122 526.5,-122 520.5,-116 520.5,-110 520.5,-110 520.5,-82 520.5,-82 520.5,-76 526.5,-70 532.5,-70"/>
<text text-anchor="middle" x="577.38" y="-109.45" font-family="Helvetica,sans-Serif" font-weight="bold" font-size="9.00">workshop</text>
</g>
<!-- src/app.module.ts -->
<g id="node1" class="node">
<title>src/app.module.ts</title>
<g id="a_node1"><a xlink:href="src/app.module.ts" xlink:title="app.module.ts">
<path fill="#ddfeff" stroke="black" d="M83.83,-84.88C83.83,-84.88 21.92,-84.88 21.92,-84.88 18.96,-84.88 16,-81.92 16,-78.96 16,-78.96 16,-73.04 16,-73.04 16,-70.08 18.96,-67.12 21.92,-67.12 21.92,-67.12 83.83,-67.12 83.83,-67.12 86.79,-67.12 89.75,-70.08 89.75,-73.04 89.75,-73.04 89.75,-78.96 89.75,-78.96 89.75,-81.92 86.79,-84.88 83.83,-84.88"/>
<text text-anchor="start" x="24" y="-72.33" font-family="Helvetica,sans-Serif" font-size="9.00">app.module.ts</text>
</a>
</g>
</g>
<!-- src/auth/auth.module.ts -->
<g id="node2" class="node">
<title>src/auth/auth.module.ts</title>
<g id="a_node2"><a xlink:href="src/auth/auth.module.ts" xlink:title="auth.module.ts">
<path fill="#ddfeff" stroke="black" d="M182.58,-54.88C182.58,-54.88 118.42,-54.88 118.42,-54.88 115.46,-54.88 112.5,-51.92 112.5,-48.96 112.5,-48.96 112.5,-43.04 112.5,-43.04 112.5,-40.08 115.46,-37.12 118.42,-37.12 118.42,-37.12 182.58,-37.12 182.58,-37.12 185.54,-37.12 188.5,-40.08 188.5,-43.04 188.5,-43.04 188.5,-48.96 188.5,-48.96 188.5,-51.92 185.54,-54.88 182.58,-54.88"/>
<text text-anchor="start" x="120.5" y="-42.33" font-family="Helvetica,sans-Serif" font-size="9.00">auth.module.ts</text>
</a>
</g>
</g>
<!-- src/app.module.ts&#45;&gt;src/auth/auth.module.ts -->
<g id="edge1" class="edge">
<title>src/app.module.ts&#45;&gt;src/auth/auth.module.ts</title>
<path fill="none" stroke="#000000" stroke-width="2" stroke-opacity="0.200000" d="M83.61,-66.67C92.33,-63.93 102,-60.9 111.18,-58.02"/>
<polygon fill="#000000" fill-opacity="0.200000" stroke="#000000" stroke-width="2" stroke-opacity="0.200000" points="111.8,-60.03 116.9,-56.23 110.54,-56.02 111.8,-60.03"/>
</g>
<!-- src/graphql/graphql.module.ts -->
<g id="node3" class="node">
<title>src/graphql/graphql.module.ts</title>
<g id="a_node3"><a xlink:href="src/graphql/graphql.module.ts" xlink:title="graphql.module.ts">
<path fill="#ddfeff" stroke="black" d="M189.33,-114.88C189.33,-114.88 111.67,-114.88 111.67,-114.88 108.71,-114.88 105.75,-111.92 105.75,-108.96 105.75,-108.96 105.75,-103.04 105.75,-103.04 105.75,-100.08 108.71,-97.12 111.67,-97.12 111.67,-97.12 189.33,-97.12 189.33,-97.12 192.29,-97.12 195.25,-100.08 195.25,-103.04 195.25,-103.04 195.25,-108.96 195.25,-108.96 195.25,-111.92 192.29,-114.88 189.33,-114.88"/>
<text text-anchor="start" x="113.75" y="-102.33" font-family="Helvetica,sans-Serif" font-size="9.00">graphql.module.ts</text>
</a>
</g>
</g>
<!-- src/app.module.ts&#45;&gt;src/graphql/graphql.module.ts -->
<g id="edge2" class="edge">
<title>src/app.module.ts&#45;&gt;src/graphql/graphql.module.ts</title>
<path fill="none" stroke="#000000" stroke-width="2" stroke-opacity="0.200000" d="M83.61,-85.33C92.33,-88.07 102,-91.1 111.18,-93.98"/>
<polygon fill="#000000" fill-opacity="0.200000" stroke="#000000" stroke-width="2" stroke-opacity="0.200000" points="110.54,-95.98 116.9,-95.77 111.8,-91.97 110.54,-95.98"/>
</g>
<!-- src/modules/admin/admin.module.ts -->
<g id="node4" class="node">
<title>src/modules/admin/admin.module.ts</title>
<g id="a_node4"><a xlink:href="src/modules/admin/admin.module.ts" xlink:title="admin.module.ts">
<path fill="#ddfeff" stroke="black" d="M304.83,-83.88C304.83,-83.88 233.17,-83.88 233.17,-83.88 230.21,-83.88 227.25,-80.92 227.25,-77.96 227.25,-77.96 227.25,-72.04 227.25,-72.04 227.25,-69.08 230.21,-66.12 233.17,-66.12 233.17,-66.12 304.83,-66.12 304.83,-66.12 307.79,-66.12 310.75,-69.08 310.75,-72.04 310.75,-72.04 310.75,-77.96 310.75,-77.96 310.75,-80.92 307.79,-83.88 304.83,-83.88"/>
<text text-anchor="start" x="235.25" y="-71.33" font-family="Helvetica,sans-Serif" font-size="9.00">admin.module.ts</text>
</a>
</g>
</g>
<!-- src/graphql/graphql.module.ts&#45;&gt;src/modules/admin/admin.module.ts -->
<g id="edge3" class="edge">
<title>src/graphql/graphql.module.ts&#45;&gt;src/modules/admin/admin.module.ts</title>
<path fill="none" stroke="#000000" stroke-width="2" stroke-opacity="0.200000" d="M186.45,-96.7C198.43,-93.51 211.99,-89.9 224.56,-86.56"/>
<polygon fill="#000000" fill-opacity="0.200000" stroke="#000000" stroke-width="2" stroke-opacity="0.200000" points="224.89,-88.65 230.15,-85.07 223.81,-84.59 224.89,-88.65"/>
</g>
<!-- src/modules/database/database.module.ts -->
<g id="node5" class="node">
<title>src/modules/database/database.module.ts</title>
<g id="a_node5"><a xlink:href="src/modules/database/database.module.ts" xlink:title="database.module.ts">
<path fill="#ddfeff" stroke="black" d="M840.58,-129.88C840.58,-129.88 756.17,-129.88 756.17,-129.88 753.21,-129.88 750.25,-126.92 750.25,-123.96 750.25,-123.96 750.25,-118.04 750.25,-118.04 750.25,-115.08 753.21,-112.12 756.17,-112.12 756.17,-112.12 840.58,-112.12 840.58,-112.12 843.54,-112.12 846.5,-115.08 846.5,-118.04 846.5,-118.04 846.5,-123.96 846.5,-123.96 846.5,-126.92 843.54,-129.88 840.58,-129.88"/>
<text text-anchor="start" x="758.25" y="-117.33" font-family="Helvetica,sans-Serif" font-size="9.00">database.module.ts</text>
</a>
</g>
</g>
<!-- src/graphql/graphql.module.ts&#45;&gt;src/modules/database/database.module.ts -->
<g id="edge4" class="edge">
<title>src/graphql/graphql.module.ts&#45;&gt;src/modules/database/database.module.ts</title>
<path fill="none" stroke="#000000" stroke-width="2" stroke-opacity="0.200000" d="M186.8,-96.67C193.07,-93.56 198.96,-89.45 203.25,-84 216.63,-67.01 195.4,-50.72 211.25,-36 279.06,26.99 326.07,-17 418.62,-17 418.62,-17 418.62,-17 578.38,-17 648.54,-17 673.64,-6.66 734.25,-42 759.39,-56.66 778.44,-85.45 788.74,-103.93"/>
<polygon fill="#000000" fill-opacity="0.200000" stroke="#000000" stroke-width="2" stroke-opacity="0.200000" points="786.86,-104.87 791.54,-109.17 790.57,-102.89 786.86,-104.87"/>
</g>
<!-- src/modules/element&#45;ai/element&#45;summary.module.ts -->
<g id="node6" class="node">
<title>src/modules/element&#45;ai/element&#45;summary.module.ts</title>
<g id="a_node6"><a xlink:href="src/modules/element-ai/element-summary.module.ts" xlink:title="element&#45;summary.module.ts">
<path fill="#ddfeff" stroke="black" d="M479.46,-107.88C479.46,-107.88 359.79,-107.88 359.79,-107.88 356.83,-107.88 353.88,-104.92 353.88,-101.96 353.88,-101.96 353.88,-96.04 353.88,-96.04 353.88,-93.08 356.83,-90.12 359.79,-90.12 359.79,-90.12 479.46,-90.12 479.46,-90.12 482.42,-90.12 485.38,-93.08 485.38,-96.04 485.38,-96.04 485.38,-101.96 485.38,-101.96 485.38,-104.92 482.42,-107.88 479.46,-107.88"/>
<text text-anchor="start" x="361.88" y="-95.33" font-family="Helvetica,sans-Serif" font-size="9.00">element&#45;summary.module.ts</text>
</a>
</g>
</g>
<!-- src/graphql/graphql.module.ts&#45;&gt;src/modules/element&#45;ai/element&#45;summary.module.ts -->
<g id="edge5" class="edge">
<title>src/graphql/graphql.module.ts&#45;&gt;src/modules/element&#45;ai/element&#45;summary.module.ts</title>
<path fill="none" stroke="#000000" stroke-width="2" stroke-opacity="0.200000" d="M195.5,-111.74C200.8,-112.26 206.14,-112.7 211.25,-113 258.95,-115.78 271.09,-116.32 318.75,-113 329.88,-112.22 341.67,-110.97 353.08,-109.51"/>
<polygon fill="#000000" fill-opacity="0.200000" stroke="#000000" stroke-width="2" stroke-opacity="0.200000" points="353.05,-111.64 358.73,-108.77 352.5,-107.47 353.05,-111.64"/>
</g>
<!-- src/modules/element/element.module.ts -->
<g id="node7" class="node">
<title>src/modules/element/element.module.ts</title>
<g id="a_node7"><a xlink:href="src/modules/element/element.module.ts" xlink:title="element.module.ts">
<path fill="#ddfeff" stroke="black" d="M616.96,-166.88C616.96,-166.88 537.79,-166.88 537.79,-166.88 534.83,-166.88 531.88,-163.92 531.88,-160.96 531.88,-160.96 531.88,-155.04 531.88,-155.04 531.88,-152.08 534.83,-149.12 537.79,-149.12 537.79,-149.12 616.96,-149.12 616.96,-149.12 619.92,-149.12 622.88,-152.08 622.88,-155.04 622.88,-155.04 622.88,-160.96 622.88,-160.96 622.88,-163.92 619.92,-166.88 616.96,-166.88"/>
<text text-anchor="start" x="539.88" y="-154.32" font-family="Helvetica,sans-Serif" font-size="9.00">element.module.ts</text>
</a>
</g>
</g>
<!-- src/graphql/graphql.module.ts&#45;&gt;src/modules/element/element.module.ts -->
<g id="edge6" class="edge">
<title>src/graphql/graphql.module.ts&#45;&gt;src/modules/element/element.module.ts</title>
<path fill="none" stroke="#000000" stroke-width="2" stroke-opacity="0.200000" d="M157.8,-115.07C178.15,-143.43 245.55,-230.09 326.75,-257 405.11,-282.97 440.01,-296.5 512.5,-257 544.21,-239.72 562.57,-199.18 570.9,-175.69"/>
<polygon fill="#000000" fill-opacity="0.200000" stroke="#000000" stroke-width="2" stroke-opacity="0.200000" points="572.83,-176.56 572.74,-170.2 568.84,-175.22 572.83,-176.56"/>
</g>
<!-- src/modules/user&#45;liked/user&#45;liked.module.ts -->
<g id="node8" class="node">
<title>src/modules/user&#45;liked/user&#45;liked.module.ts</title>
<g id="a_node8"><a xlink:href="src/modules/user-liked/user-liked.module.ts" xlink:title="user&#45;liked.module.ts">
<path fill="#ddfeff" stroke="black" d="M462.96,-227.88C462.96,-227.88 376.29,-227.88 376.29,-227.88 373.33,-227.88 370.38,-224.92 370.38,-221.96 370.38,-221.96 370.38,-216.04 370.38,-216.04 370.38,-213.08 373.33,-210.12 376.29,-210.12 376.29,-210.12 462.96,-210.12 462.96,-210.12 465.92,-210.12 468.88,-213.08 468.88,-216.04 468.88,-216.04 468.88,-221.96 468.88,-221.96 468.88,-224.92 465.92,-227.88 462.96,-227.88"/>
<text text-anchor="start" x="378.38" y="-215.32" font-family="Helvetica,sans-Serif" font-size="9.00">user&#45;liked.module.ts</text>
</a>
</g>
</g>
<!-- src/graphql/graphql.module.ts&#45;&gt;src/modules/user&#45;liked/user&#45;liked.module.ts -->
<g id="edge7" class="edge">
<title>src/graphql/graphql.module.ts&#45;&gt;src/modules/user&#45;liked/user&#45;liked.module.ts</title>
<path fill="none" stroke="#000000" stroke-width="2" stroke-opacity="0.200000" d="M166.39,-115.34C195.92,-133.48 264.43,-173.76 326.75,-197 337.88,-201.15 350.06,-204.71 361.82,-207.69"/>
<polygon fill="#000000" fill-opacity="0.200000" stroke="#000000" stroke-width="2" stroke-opacity="0.200000" points="361.01,-209.65 367.34,-209.04 362.01,-205.57 361.01,-209.65"/>
</g>
<!-- src/modules/user/user.module.ts -->
<g id="node9" class="node">
<title>src/modules/user/user.module.ts</title>
<g id="a_node9"><a xlink:href="src/modules/user/user.module.ts" xlink:title="user.module.ts">
<path fill="#ddfeff" stroke="black" d="M720.33,-107.88C720.33,-107.88 656.17,-107.88 656.17,-107.88 653.21,-107.88 650.25,-104.92 650.25,-101.96 650.25,-101.96 650.25,-96.04 650.25,-96.04 650.25,-93.08 653.21,-90.12 656.17,-90.12 656.17,-90.12 720.33,-90.12 720.33,-90.12 723.29,-90.12 726.25,-93.08 726.25,-96.04 726.25,-96.04 726.25,-101.96 726.25,-101.96 726.25,-104.92 723.29,-107.88 720.33,-107.88"/>
<text text-anchor="start" x="658.25" y="-95.33" font-family="Helvetica,sans-Serif" font-size="9.00">user.module.ts</text>
</a>
</g>
</g>
<!-- src/graphql/graphql.module.ts&#45;&gt;src/modules/user/user.module.ts -->
<g id="edge8" class="edge">
<title>src/graphql/graphql.module.ts&#45;&gt;src/modules/user/user.module.ts</title>
<path fill="none" stroke="#000000" stroke-width="2" stroke-opacity="0.200000" d="M186.4,-96.69C192.78,-93.58 198.81,-89.45 203.25,-84 214.69,-69.94 197.23,-55.49 211.25,-44 218.24,-38.27 417.67,-36.25 512.5,-45 567.26,-50.05 582.81,-47.58 634.25,-67 645.88,-71.39 657.81,-78.34 667.41,-84.65"/>
<polygon fill="#000000" fill-opacity="0.200000" stroke="#000000" stroke-width="2" stroke-opacity="0.200000" points="666.21,-86.37 672.35,-88.02 668.58,-82.9 666.21,-86.37"/>
</g>
<!-- src/modules/workshop&#45;recommendation/workshop&#45;recommendation.module.ts -->
<g id="node10" class="node">
<title>src/modules/workshop&#45;recommendation/workshop&#45;recommendation.module.ts</title>
<g id="a_node10"><a xlink:href="src/modules/workshop-recommendation/workshop-recommendation.module.ts" xlink:title="workshop&#45;recommendation.module.ts">
<path fill="#ddfeff" stroke="black" d="M498.58,-167.88C498.58,-167.88 340.67,-167.88 340.67,-167.88 337.71,-167.88 334.75,-164.92 334.75,-161.96 334.75,-161.96 334.75,-156.04 334.75,-156.04 334.75,-153.08 337.71,-150.12 340.67,-150.12 340.67,-150.12 498.58,-150.12 498.58,-150.12 501.54,-150.12 504.5,-153.08 504.5,-156.04 504.5,-156.04 504.5,-161.96 504.5,-161.96 504.5,-164.92 501.54,-167.88 498.58,-167.88"/>
<text text-anchor="start" x="342.75" y="-155.32" font-family="Helvetica,sans-Serif" font-size="9.00">workshop&#45;recommendation.module.ts</text>
</a>
</g>
</g>
<!-- src/graphql/graphql.module.ts&#45;&gt;src/modules/workshop&#45;recommendation/workshop&#45;recommendation.module.ts -->
<g id="edge9" class="edge">
<title>src/graphql/graphql.module.ts&#45;&gt;src/modules/workshop&#45;recommendation/workshop&#45;recommendation.module.ts</title>
<path fill="none" stroke="#000000" stroke-width="2" stroke-opacity="0.200000" d="M195.55,-114.86C200.84,-115.92 206.17,-116.99 211.25,-118 262.49,-128.21 320.88,-139.75 362.61,-147.97"/>
<polygon fill="#000000" fill-opacity="0.200000" stroke="#000000" stroke-width="2" stroke-opacity="0.200000" points="362,-149.99 368.29,-149.09 362.81,-145.87 362,-149.99"/>
</g>
<!-- src/modules/workshop/workshop.module.ts -->
<g id="node11" class="node">
<title>src/modules/workshop/workshop.module.ts</title>
<g id="a_node11"><a xlink:href="src/modules/workshop/workshop.module.ts" xlink:title="workshop.module.ts">
<path fill="#ddfeff" stroke="black" d="M620.33,-95.88C620.33,-95.88 534.42,-95.88 534.42,-95.88 531.46,-95.88 528.5,-92.92 528.5,-89.96 528.5,-89.96 528.5,-84.04 528.5,-84.04 528.5,-81.08 531.46,-78.12 534.42,-78.12 534.42,-78.12 620.33,-78.12 620.33,-78.12 623.29,-78.12 626.25,-81.08 626.25,-84.04 626.25,-84.04 626.25,-89.96 626.25,-89.96 626.25,-92.92 623.29,-95.88 620.33,-95.88"/>
<text text-anchor="start" x="536.5" y="-83.33" font-family="Helvetica,sans-Serif" font-size="9.00">workshop.module.ts</text>
</a>
</g>
</g>
<!-- src/graphql/graphql.module.ts&#45;&gt;src/modules/workshop/workshop.module.ts -->
<g id="edge10" class="edge">
<title>src/graphql/graphql.module.ts&#45;&gt;src/modules/workshop/workshop.module.ts</title>
<path fill="none" stroke="#000000" stroke-width="2" stroke-opacity="0.200000" d="M185.56,-96.69C192.16,-93.57 198.49,-89.44 203.25,-84 212.06,-73.94 200.61,-63.1 211.25,-55 234.08,-37.61 445.13,-54.56 512.5,-67 522.66,-68.88 533.48,-71.86 543.26,-74.96"/>
<polygon fill="#000000" fill-opacity="0.200000" stroke="#000000" stroke-width="2" stroke-opacity="0.200000" points="542.32,-76.86 548.67,-76.74 543.63,-72.87 542.32,-76.86"/>
</g>
<!-- src/modules/admin/admin.module.ts&#45;&gt;src/modules/database/database.module.ts -->
<g id="edge11" class="edge">
<title>src/modules/admin/admin.module.ts&#45;&gt;src/modules/database/database.module.ts</title>
<path fill="none" stroke="#000000" stroke-width="2" stroke-opacity="0.200000" d="M307.33,-65.63C388.21,-47.19 584.37,-12.57 734.25,-68 754.41,-75.45 772.64,-92.4 784.27,-105.14"/>
<polygon fill="#000000" fill-opacity="0.200000" stroke="#000000" stroke-width="2" stroke-opacity="0.200000" points="782.49,-106.3 788.02,-109.42 785.64,-103.53 782.49,-106.3"/>
</g>
<!-- src/modules/admin/admin.module.ts&#45;&gt;src/modules/element&#45;ai/element&#45;summary.module.ts -->
<g id="edge12" class="edge">
<title>src/modules/admin/admin.module.ts&#45;&gt;src/modules/element&#45;ai/element&#45;summary.module.ts</title>
<path fill="none" stroke="#000000" stroke-width="2" stroke-opacity="0.200000" d="M311.01,-81.62C323.74,-83.68 338.12,-86 352.13,-88.26"/>
<polygon fill="#000000" fill-opacity="0.200000" stroke="#000000" stroke-width="2" stroke-opacity="0.200000" points="351.54,-90.29 357.8,-89.18 352.21,-86.15 351.54,-90.29"/>
</g>
<!-- src/modules/admin/admin.module.ts&#45;&gt;src/modules/element/element.module.ts -->
<g id="edge13" class="edge">
<title>src/modules/admin/admin.module.ts&#45;&gt;src/modules/element/element.module.ts</title>
<path fill="none" stroke="#000000" stroke-width="2" stroke-opacity="0.200000" d="M311.14,-72.88C376.35,-69.93 497.62,-66.27 512.5,-79 528.27,-92.49 508.7,-107.93 520.5,-125 526.14,-133.16 534.51,-139.61 543.06,-144.56"/>
<polygon fill="#000000" fill-opacity="0.200000" stroke="#000000" stroke-width="2" stroke-opacity="0.200000" points="541.94,-146.34 548.22,-147.28 543.89,-142.63 541.94,-146.34"/>
</g>
<!-- src/modules/element&#45;ai/element&#45;summary.module.ts&#45;&gt;src/modules/database/database.module.ts -->
<g id="edge14" class="edge">
<title>src/modules/element&#45;ai/element&#45;summary.module.ts&#45;&gt;src/modules/database/database.module.ts</title>
<path fill="none" stroke="#000000" stroke-width="2" stroke-opacity="0.200000" d="M451.39,-108.34C471,-113.96 497.04,-120.82 520.5,-125 567.34,-133.35 687.04,-142.89 734.25,-137 742.08,-136.02 750.32,-134.39 758.18,-132.53"/>
<polygon fill="#000000" fill-opacity="0.200000" stroke="#000000" stroke-width="2" stroke-opacity="0.200000" points="758.6,-134.59 763.91,-131.1 757.58,-130.52 758.6,-134.59"/>
</g>
<!-- src/modules/element&#45;ai/element&#45;summary.module.ts&#45;&gt;src/modules/element/element.module.ts -->
<g id="edge15" class="edge">
<title>src/modules/element&#45;ai/element&#45;summary.module.ts&#45;&gt;src/modules/element/element.module.ts</title>
<path fill="none" stroke="#000000" stroke-width="2" stroke-opacity="0.200000" d="M445.3,-108.35C471.85,-118.4 514.19,-134.44 543.53,-145.56"/>
<polygon fill="#000000" fill-opacity="0.200000" stroke="#000000" stroke-width="2" stroke-opacity="0.200000" points="542.63,-147.46 548.98,-147.62 544.11,-143.53 542.63,-147.46"/>
</g>
<!-- src/modules/element/element.module.ts&#45;&gt;src/modules/database/database.module.ts -->
<g id="edge16" class="edge">
<title>src/modules/element/element.module.ts&#45;&gt;src/modules/database/database.module.ts</title>
<path fill="none" stroke="#000000" stroke-width="2" stroke-opacity="0.200000" d="M623.29,-158.61C654.74,-158.12 697.54,-155.62 734.25,-147 746.76,-144.06 759.99,-138.95 771.09,-134.04"/>
<polygon fill="#000000" fill-opacity="0.200000" stroke="#000000" stroke-width="2" stroke-opacity="0.200000" points="771.78,-136.03 776.36,-131.62 770.03,-132.21 771.78,-136.03"/>
</g>
<!-- src/modules/element/element.module.ts&#45;&gt;src/modules/user/user.module.ts -->
<g id="edge17" class="edge">
<title>src/modules/element/element.module.ts&#45;&gt;src/modules/user/user.module.ts</title>
<path fill="none" stroke="#000000" stroke-width="2" stroke-opacity="0.200000" d="M595.39,-148.78C613.34,-139.05 641.81,-123.62 662.3,-112.52"/>
<polygon fill="#000000" fill-opacity="0.200000" stroke="#000000" stroke-width="2" stroke-opacity="0.200000" points="663.06,-114.5 667.34,-109.79 661.06,-110.8 663.06,-114.5"/>
</g>
<!-- src/modules/user&#45;liked/user&#45;liked.module.ts&#45;&gt;src/modules/database/database.module.ts -->
<g id="edge18" class="edge">
<title>src/modules/user&#45;liked/user&#45;liked.module.ts&#45;&gt;src/modules/database/database.module.ts</title>
<path fill="none" stroke="#000000" stroke-width="2" stroke-opacity="0.200000" d="M469.21,-223.29C533.72,-226.76 649.36,-225.16 734.25,-180 754.36,-169.3 772.83,-150.53 784.52,-137.03"/>
<polygon fill="#000000" fill-opacity="0.200000" stroke="#000000" stroke-width="2" stroke-opacity="0.200000" points="786.1,-138.42 788.34,-132.48 782.88,-135.72 786.1,-138.42"/>
</g>
<!-- src/modules/user&#45;liked/user&#45;liked.module.ts&#45;&gt;src/modules/element/element.module.ts -->
<g id="edge19" class="edge">
<title>src/modules/user&#45;liked/user&#45;liked.module.ts&#45;&gt;src/modules/element/element.module.ts</title>
<path fill="none" stroke="#000000" stroke-width="2" stroke-opacity="0.200000" d="M469.21,-210.35C483.45,-207.03 498.86,-202.63 512.5,-197 528.07,-190.57 544.24,-180.66 556.42,-172.43"/>
<polygon fill="#000000" fill-opacity="0.200000" stroke="#000000" stroke-width="2" stroke-opacity="0.200000" points="557.57,-174.19 561.31,-169.05 555.18,-170.74 557.57,-174.19"/>
</g>
<!-- src/modules/user/user.module.ts&#45;&gt;src/modules/database/database.module.ts -->
<g id="edge20" class="edge">
<title>src/modules/user/user.module.ts&#45;&gt;src/modules/database/database.module.ts</title>
<path fill="none" stroke="#000000" stroke-width="2" stroke-opacity="0.200000" d="M726.46,-106.57C731.75,-107.65 737.28,-108.77 742.82,-109.9"/>
<polygon fill="#000000" fill-opacity="0.200000" stroke="#000000" stroke-width="2" stroke-opacity="0.200000" points="742.23,-111.92 748.53,-111.06 743.07,-107.81 742.23,-111.92"/>
</g>
<!-- src/modules/workshop&#45;recommendation/workshop&#45;recommendation.module.ts&#45;&gt;src/modules/database/database.module.ts -->
<g id="edge21" class="edge">
<title>src/modules/workshop&#45;recommendation/workshop&#45;recommendation.module.ts&#45;&gt;src/modules/database/database.module.ts</title>
<path fill="none" stroke="#000000" stroke-width="2" stroke-opacity="0.200000" d="M439.57,-168.33C459.25,-177.47 491.2,-190.75 520.5,-196 570.26,-204.92 584.61,-205.56 634.25,-196 688.48,-185.56 745.78,-153.65 775.92,-134.98"/>
<polygon fill="#000000" fill-opacity="0.200000" stroke="#000000" stroke-width="2" stroke-opacity="0.200000" points="776.81,-136.91 780.77,-131.94 774.57,-133.35 776.81,-136.91"/>
</g>
<!-- src/modules/workshop&#45;recommendation/workshop&#45;recommendation.module.ts&#45;&gt;src/modules/element/element.module.ts -->
<g id="edge22" class="edge">
<title>src/modules/workshop&#45;recommendation/workshop&#45;recommendation.module.ts&#45;&gt;src/modules/element/element.module.ts</title>
<path fill="none" stroke="#000000" stroke-width="2" stroke-opacity="0.200000" d="M504.88,-158.46C510.9,-158.42 516.87,-158.38 522.65,-158.34"/>
<polygon fill="#000000" fill-opacity="0.200000" stroke="#000000" stroke-width="2" stroke-opacity="0.200000" points="522.52,-160.45 528.51,-158.31 522.49,-156.25 522.52,-160.45"/>
</g>
<!-- src/modules/workshop&#45;recommendation/workshop&#45;recommendation.module.ts&#45;&gt;src/modules/workshop/workshop.module.ts -->
<g id="edge23" class="edge">
<title>src/modules/workshop&#45;recommendation/workshop&#45;recommendation.module.ts&#45;&gt;src/modules/workshop/workshop.module.ts</title>
<path fill="none" stroke="#000000" stroke-width="2" stroke-opacity="0.200000" d="M476.37,-149.7C488.62,-146.56 501.27,-142.42 512.5,-137 530.74,-128.2 548.64,-113.51 560.83,-102.33"/>
<polygon fill="#000000" fill-opacity="0.200000" stroke="#000000" stroke-width="2" stroke-opacity="0.200000" points="562.18,-103.94 565.1,-98.29 559.3,-100.88 562.18,-103.94"/>
</g>
<!-- src/modules/workshop/workshop.module.ts&#45;&gt;src/modules/database/database.module.ts -->
<g id="edge24" class="edge">
<title>src/modules/workshop/workshop.module.ts&#45;&gt;src/modules/database/database.module.ts</title>
<path fill="none" stroke="#000000" stroke-width="2" stroke-opacity="0.200000" d="M618.02,-77.67C650.07,-71.85 695.99,-67.44 734.25,-79 751.78,-84.3 768.9,-96.24 780.88,-106.04"/>
<polygon fill="#000000" fill-opacity="0.200000" stroke="#000000" stroke-width="2" stroke-opacity="0.200000" points="779.39,-107.54 785.32,-109.83 782.12,-104.34 779.39,-107.54"/>
</g>
<!-- src/modules/workshop/workshop.module.ts&#45;&gt;src/modules/user/user.module.ts -->
<g id="edge25" class="edge">
<title>src/modules/workshop/workshop.module.ts&#45;&gt;src/modules/user/user.module.ts</title>
<path fill="none" stroke="#000000" stroke-width="2" stroke-opacity="0.200000" d="M626.45,-92.3C631.36,-92.84 636.34,-93.39 641.23,-93.93"/>
<polygon fill="#000000" fill-opacity="0.200000" stroke="#000000" stroke-width="2" stroke-opacity="0.200000" points="640.7,-95.98 646.89,-94.55 641.16,-91.81 640.7,-95.98"/>
</g>
</g>
</svg>
