<?xml version="1.0" encoding="UTF-8" standalone="no"?>
<!DOCTYPE svg PUBLIC "-//W3C//DTD SVG 1.1//EN"
 "http://www.w3.org/Graphics/SVG/1.1/DTD/svg11.dtd">
<!-- Generated by graphviz version 9.0.0 (20230911.1827)
 -->
<!-- Title: dependency&#45;cruiser output Pages: 1 -->
<svg width="990pt" height="402pt"
 viewBox="0.00 0.00 990.00 402.47" xmlns="http://www.w3.org/2000/svg" xmlns:xlink="http://www.w3.org/1999/xlink">
<g id="graph0" class="graph" transform="scale(1 1) rotate(0) translate(4 398.47)">
<title>dependency&#45;cruiser output</title>
<polygon fill="white" stroke="none" points="-4,4 -4,-398.47 986,-398.47 986,4 -4,4"/>
<g id="clust1" class="cluster">
<title>cluster_src</title>
<path fill="#ffffff" stroke="black" stroke-width="2" d="M20,-26.47C20,-26.47 962,-26.47 962,-26.47 968,-26.47 974,-32.47 974,-38.47 974,-38.47 974,-374.47 974,-374.47 974,-380.47 968,-386.47 962,-386.47 962,-386.47 20,-386.47 20,-386.47 14,-386.47 8,-380.47 8,-374.47 8,-374.47 8,-38.47 8,-38.47 8,-32.47 14,-26.47 20,-26.47"/>
<text text-anchor="middle" x="491" y="-373.92" font-family="Helvetica,sans-Serif" font-weight="bold" font-size="9.00">src</text>
</g>
<g id="clust2" class="cluster">
<title>cluster_src/auth</title>
<path fill="#ffffff" stroke="black" stroke-width="2" d="M116.5,-62.47C116.5,-62.47 184.5,-62.47 184.5,-62.47 190.5,-62.47 196.5,-68.47 196.5,-74.47 196.5,-74.47 196.5,-102.47 196.5,-102.47 196.5,-108.47 190.5,-114.47 184.5,-114.47 184.5,-114.47 116.5,-114.47 116.5,-114.47 110.5,-114.47 104.5,-108.47 104.5,-102.47 104.5,-102.47 104.5,-74.47 104.5,-74.47 104.5,-68.47 110.5,-62.47 116.5,-62.47"/>
<text text-anchor="middle" x="150.5" y="-101.92" font-family="Helvetica,sans-Serif" font-weight="bold" font-size="9.00">auth</text>
</g>
<g id="clust3" class="cluster">
<title>cluster_src/graphql</title>
<path fill="#ffffff" stroke="black" stroke-width="2" d="M109.75,-122.47C109.75,-122.47 191.25,-122.47 191.25,-122.47 197.25,-122.47 203.25,-128.47 203.25,-134.47 203.25,-134.47 203.25,-162.47 203.25,-162.47 203.25,-168.47 197.25,-174.47 191.25,-174.47 191.25,-174.47 109.75,-174.47 109.75,-174.47 103.75,-174.47 97.75,-168.47 97.75,-162.47 97.75,-162.47 97.75,-134.47 97.75,-134.47 97.75,-128.47 103.75,-122.47 109.75,-122.47"/>
<text text-anchor="middle" x="150.5" y="-161.92" font-family="Helvetica,sans-Serif" font-weight="bold" font-size="9.00">graphql</text>
</g>
<g id="clust4" class="cluster">
<title>cluster_src/modules</title>
<path fill="#ffffff" stroke="black" stroke-width="2" d="M223.25,-78.47C223.25,-78.47 954,-78.47 954,-78.47 960,-78.47 966,-84.47 966,-90.47 966,-90.47 966,-348.47 966,-348.47 966,-354.47 960,-360.47 954,-360.47 954,-360.47 223.25,-360.47 223.25,-360.47 217.25,-360.47 211.25,-354.47 211.25,-348.47 211.25,-348.47 211.25,-90.47 211.25,-90.47 211.25,-84.47 217.25,-78.47 223.25,-78.47"/>
<text text-anchor="middle" x="588.62" y="-347.92" font-family="Helvetica,sans-Serif" font-weight="bold" font-size="9.00">modules</text>
</g>
<g id="clust5" class="cluster">
<title>cluster_src/modules/admin</title>
<path fill="#ffffff" stroke="black" stroke-width="2" d="M274.38,-162.47C274.38,-162.47 349.88,-162.47 349.88,-162.47 355.88,-162.47 361.88,-168.47 361.88,-174.47 361.88,-174.47 361.88,-202.47 361.88,-202.47 361.88,-208.47 355.88,-214.47 349.88,-214.47 349.88,-214.47 274.38,-214.47 274.38,-214.47 268.38,-214.47 262.38,-208.47 262.38,-202.47 262.38,-202.47 262.38,-174.47 262.38,-174.47 262.38,-168.47 268.38,-162.47 274.38,-162.47"/>
<text text-anchor="middle" x="312.12" y="-201.92" font-family="Helvetica,sans-Serif" font-weight="bold" font-size="9.00">admin</text>
</g>
<g id="clust6" class="cluster">
<title>cluster_src/modules/database</title>
<path fill="#ffffff" stroke="black" stroke-width="2" d="M857.75,-140.47C857.75,-140.47 946,-140.47 946,-140.47 952,-140.47 958,-146.47 958,-152.47 958,-152.47 958,-180.47 958,-180.47 958,-186.47 952,-192.47 946,-192.47 946,-192.47 857.75,-192.47 857.75,-192.47 851.75,-192.47 845.75,-186.47 845.75,-180.47 845.75,-180.47 845.75,-152.47 845.75,-152.47 845.75,-146.47 851.75,-140.47 857.75,-140.47"/>
<text text-anchor="middle" x="901.88" y="-179.92" font-family="Helvetica,sans-Serif" font-weight="bold" font-size="9.00">database</text>
</g>
<g id="clust7" class="cluster">
<title>cluster_src/modules/element&#45;ai</title>
<path fill="#ffffff" stroke="black" stroke-width="2" d="M440.75,-86.47C440.75,-86.47 564.25,-86.47 564.25,-86.47 570.25,-86.47 576.25,-92.47 576.25,-98.47 576.25,-98.47 576.25,-126.47 576.25,-126.47 576.25,-132.47 570.25,-138.47 564.25,-138.47 564.25,-138.47 440.75,-138.47 440.75,-138.47 434.75,-138.47 428.75,-132.47 428.75,-126.47 428.75,-126.47 428.75,-98.47 428.75,-98.47 428.75,-92.47 434.75,-86.47 440.75,-86.47"/>
<text text-anchor="middle" x="502.5" y="-125.92" font-family="Helvetica,sans-Serif" font-weight="bold" font-size="9.00">element&#45;ai</text>
</g>
<g id="clust8" class="cluster">
<title>cluster_src/modules/element&#45;recommendation</title>
<path fill="#ffffff" stroke="black" stroke-width="2" d="M425,-244.47C425,-244.47 580,-244.47 580,-244.47 586,-244.47 592,-250.47 592,-256.47 592,-256.47 592,-284.47 592,-284.47 592,-290.47 586,-296.47 580,-296.47 580,-296.47 425,-296.47 425,-296.47 419,-296.47 413,-290.47 413,-284.47 413,-284.47 413,-256.47 413,-256.47 413,-250.47 419,-244.47 425,-244.47"/>
<text text-anchor="middle" x="502.5" y="-283.92" font-family="Helvetica,sans-Serif" font-weight="bold" font-size="9.00">element&#45;recommendation</text>
</g>
<g id="clust9" class="cluster">
<title>cluster_src/modules/element&#45;search</title>
<path fill="#ffffff" stroke="black" stroke-width="2" d="M612,-282.47C612,-282.47 725.75,-282.47 725.75,-282.47 731.75,-282.47 737.75,-288.47 737.75,-294.47 737.75,-294.47 737.75,-322.47 737.75,-322.47 737.75,-328.47 731.75,-334.47 725.75,-334.47 725.75,-334.47 612,-334.47 612,-334.47 606,-334.47 600,-328.47 600,-322.47 600,-322.47 600,-294.47 600,-294.47 600,-288.47 606,-282.47 612,-282.47"/>
<text text-anchor="middle" x="668.88" y="-321.92" font-family="Helvetica,sans-Serif" font-weight="bold" font-size="9.00">element&#45;search</text>
</g>
<g id="clust10" class="cluster">
<title>cluster_src/modules/element</title>
<path fill="#ffffff" stroke="black" stroke-width="2" d="M627.38,-114.47C627.38,-114.47 710.38,-114.47 710.38,-114.47 716.38,-114.47 722.38,-120.47 722.38,-126.47 722.38,-126.47 722.38,-154.47 722.38,-154.47 722.38,-160.47 716.38,-166.47 710.38,-166.47 710.38,-166.47 627.38,-166.47 627.38,-166.47 621.38,-166.47 615.38,-160.47 615.38,-154.47 615.38,-154.47 615.38,-126.47 615.38,-126.47 615.38,-120.47 621.38,-114.47 627.38,-114.47"/>
<text text-anchor="middle" x="668.88" y="-153.92" font-family="Helvetica,sans-Serif" font-weight="bold" font-size="9.00">element</text>
</g>
<g id="clust11" class="cluster">
<title>cluster_src/modules/user&#45;liked</title>
<path fill="#ffffff" stroke="black" stroke-width="2" d="M457.25,-146.47C457.25,-146.47 547.75,-146.47 547.75,-146.47 553.75,-146.47 559.75,-152.47 559.75,-158.47 559.75,-158.47 559.75,-186.47 559.75,-186.47 559.75,-192.47 553.75,-198.47 547.75,-198.47 547.75,-198.47 457.25,-198.47 457.25,-198.47 451.25,-198.47 445.25,-192.47 445.25,-186.47 445.25,-186.47 445.25,-158.47 445.25,-158.47 445.25,-152.47 451.25,-146.47 457.25,-146.47"/>
<text text-anchor="middle" x="502.5" y="-185.92" font-family="Helvetica,sans-Serif" font-weight="bold" font-size="9.00">user&#45;liked</text>
</g>
<g id="clust12" class="cluster">
<title>cluster_src/modules/user</title>
<path fill="#ffffff" stroke="black" stroke-width="2" d="M757.75,-140.47C757.75,-140.47 825.75,-140.47 825.75,-140.47 831.75,-140.47 837.75,-146.47 837.75,-152.47 837.75,-152.47 837.75,-180.47 837.75,-180.47 837.75,-186.47 831.75,-192.47 825.75,-192.47 825.75,-192.47 757.75,-192.47 757.75,-192.47 751.75,-192.47 745.75,-186.47 745.75,-180.47 745.75,-180.47 745.75,-152.47 745.75,-152.47 745.75,-146.47 751.75,-140.47 757.75,-140.47"/>
<text text-anchor="middle" x="791.75" y="-179.92" font-family="Helvetica,sans-Serif" font-weight="bold" font-size="9.00">user</text>
</g>
<g id="clust13" class="cluster">
<title>cluster_src/modules/workshop&#45;generation</title>
<path fill="#ffffff" stroke="black" stroke-width="2" d="M243.62,-282.47C243.62,-282.47 380.62,-282.47 380.62,-282.47 386.62,-282.47 392.62,-288.47 392.62,-294.47 392.62,-294.47 392.62,-322.47 392.62,-322.47 392.62,-328.47 386.62,-334.47 380.62,-334.47 380.62,-334.47 243.62,-334.47 243.62,-334.47 237.62,-334.47 231.62,-328.47 231.62,-322.47 231.62,-322.47 231.62,-294.47 231.62,-294.47 231.62,-288.47 237.62,-282.47 243.62,-282.47"/>
<text text-anchor="middle" x="312.12" y="-321.92" font-family="Helvetica,sans-Serif" font-weight="bold" font-size="9.00">workshop&#45;generation</text>
</g>
<g id="clust14" class="cluster">
<title>cluster_src/modules/workshop&#45;recommendation</title>
<path fill="#ffffff" stroke="black" stroke-width="2" d="M231.25,-222.47C231.25,-222.47 393,-222.47 393,-222.47 399,-222.47 405,-228.47 405,-234.47 405,-234.47 405,-262.47 405,-262.47 405,-268.47 399,-274.47 393,-274.47 393,-274.47 231.25,-274.47 231.25,-274.47 225.25,-274.47 219.25,-268.47 219.25,-262.47 219.25,-262.47 219.25,-234.47 219.25,-234.47 219.25,-228.47 225.25,-222.47 231.25,-222.47"/>
<text text-anchor="middle" x="312.12" y="-261.92" font-family="Helvetica,sans-Serif" font-weight="bold" font-size="9.00">workshop&#45;recommendation</text>
</g>
<g id="clust15" class="cluster">
<title>cluster_src/modules/workshop</title>
<path fill="#ffffff" stroke="black" stroke-width="2" d="M624,-212.47C624,-212.47 713.75,-212.47 713.75,-212.47 719.75,-212.47 725.75,-218.47 725.75,-224.47 725.75,-224.47 725.75,-252.47 725.75,-252.47 725.75,-258.47 719.75,-264.47 713.75,-264.47 713.75,-264.47 624,-264.47 624,-264.47 618,-264.47 612,-258.47 612,-252.47 612,-252.47 612,-224.47 612,-224.47 612,-218.47 618,-212.47 624,-212.47"/>
<text text-anchor="middle" x="668.88" y="-251.92" font-family="Helvetica,sans-Serif" font-weight="bold" font-size="9.00">workshop</text>
</g>
<!-- src/app.module.ts -->
<g id="node1" class="node">
<title>src/app.module.ts</title>
<g id="a_node1"><a xlink:href="src/app.module.ts" xlink:title="app.module.ts">
<path fill="#ddfeff" stroke="black" d="M83.83,-118.34C83.83,-118.34 21.92,-118.34 21.92,-118.34 18.96,-118.34 16,-115.38 16,-112.42 16,-112.42 16,-106.51 16,-106.51 16,-103.55 18.96,-100.59 21.92,-100.59 21.92,-100.59 83.83,-100.59 83.83,-100.59 86.79,-100.59 89.75,-103.55 89.75,-106.51 89.75,-106.51 89.75,-112.42 89.75,-112.42 89.75,-115.38 86.79,-118.34 83.83,-118.34"/>
<text text-anchor="start" x="24" y="-105.79" font-family="Helvetica,sans-Serif" font-size="9.00">app.module.ts</text>
</a>
</g>
</g>
<!-- src/auth/auth.module.ts -->
<g id="node2" class="node">
<title>src/auth/auth.module.ts</title>
<g id="a_node2"><a xlink:href="src/auth/auth.module.ts" xlink:title="auth.module.ts">
<path fill="#ddfeff" stroke="black" d="M182.58,-88.34C182.58,-88.34 118.42,-88.34 118.42,-88.34 115.46,-88.34 112.5,-85.38 112.5,-82.42 112.5,-82.42 112.5,-76.51 112.5,-76.51 112.5,-73.55 115.46,-70.59 118.42,-70.59 118.42,-70.59 182.58,-70.59 182.58,-70.59 185.54,-70.59 188.5,-73.55 188.5,-76.51 188.5,-76.51 188.5,-82.42 188.5,-82.42 188.5,-85.38 185.54,-88.34 182.58,-88.34"/>
<text text-anchor="start" x="120.5" y="-75.79" font-family="Helvetica,sans-Serif" font-size="9.00">auth.module.ts</text>
</a>
</g>
</g>
<!-- src/app.module.ts&#45;&gt;src/auth/auth.module.ts -->
<g id="edge1" class="edge">
<title>src/app.module.ts&#45;&gt;src/auth/auth.module.ts</title>
<path fill="none" stroke="#000000" stroke-width="2" stroke-opacity="0.200000" d="M83.61,-100.14C92.33,-97.4 102,-94.37 111.18,-91.49"/>
<polygon fill="#000000" fill-opacity="0.200000" stroke="#000000" stroke-width="2" stroke-opacity="0.200000" points="111.8,-93.49 116.9,-89.69 110.54,-89.49 111.8,-93.49"/>
</g>
<!-- src/graphql/graphql.module.ts -->
<g id="node3" class="node">
<title>src/graphql/graphql.module.ts</title>
<g id="a_node3"><a xlink:href="src/graphql/graphql.module.ts" xlink:title="graphql.module.ts">
<path fill="#ddfeff" stroke="black" d="M189.33,-148.34C189.33,-148.34 111.67,-148.34 111.67,-148.34 108.71,-148.34 105.75,-145.38 105.75,-142.42 105.75,-142.42 105.75,-136.51 105.75,-136.51 105.75,-133.55 108.71,-130.59 111.67,-130.59 111.67,-130.59 189.33,-130.59 189.33,-130.59 192.29,-130.59 195.25,-133.55 195.25,-136.51 195.25,-136.51 195.25,-142.42 195.25,-142.42 195.25,-145.38 192.29,-148.34 189.33,-148.34"/>
<text text-anchor="start" x="113.75" y="-135.79" font-family="Helvetica,sans-Serif" font-size="9.00">graphql.module.ts</text>
</a>
</g>
</g>
<!-- src/app.module.ts&#45;&gt;src/graphql/graphql.module.ts -->
<g id="edge2" class="edge">
<title>src/app.module.ts&#45;&gt;src/graphql/graphql.module.ts</title>
<path fill="none" stroke="#000000" stroke-width="2" stroke-opacity="0.200000" d="M83.61,-118.79C92.33,-121.53 102,-124.56 111.18,-127.44"/>
<polygon fill="#000000" fill-opacity="0.200000" stroke="#000000" stroke-width="2" stroke-opacity="0.200000" points="110.54,-129.44 116.9,-129.24 111.8,-125.44 110.54,-129.44"/>
</g>
<!-- src/modules/admin/admin.module.ts -->
<g id="node4" class="node">
<title>src/modules/admin/admin.module.ts</title>
<g id="a_node4"><a xlink:href="src/modules/admin/admin.module.ts" xlink:title="admin.module.ts">
<path fill="#ddfeff" stroke="black" d="M347.96,-188.34C347.96,-188.34 276.29,-188.34 276.29,-188.34 273.33,-188.34 270.38,-185.38 270.38,-182.42 270.38,-182.42 270.38,-176.51 270.38,-176.51 270.38,-173.55 273.33,-170.59 276.29,-170.59 276.29,-170.59 347.96,-170.59 347.96,-170.59 350.92,-170.59 353.88,-173.55 353.88,-176.51 353.88,-176.51 353.88,-182.42 353.88,-182.42 353.88,-185.38 350.92,-188.34 347.96,-188.34"/>
<text text-anchor="start" x="278.38" y="-175.79" font-family="Helvetica,sans-Serif" font-size="9.00">admin.module.ts</text>
</a>
</g>
</g>
<!-- src/graphql/graphql.module.ts&#45;&gt;src/modules/admin/admin.module.ts -->
<g id="edge3" class="edge">
<title>src/graphql/graphql.module.ts&#45;&gt;src/modules/admin/admin.module.ts</title>
<path fill="none" stroke="#000000" stroke-width="2" stroke-opacity="0.200000" d="M180.85,-148.79C190.49,-151.72 201.29,-154.87 211.25,-157.47 227.49,-161.69 245.35,-165.8 261.42,-169.29"/>
<polygon fill="#000000" fill-opacity="0.200000" stroke="#000000" stroke-width="2" stroke-opacity="0.200000" points="260.87,-171.32 267.18,-170.53 261.76,-167.22 260.87,-171.32"/>
</g>
<!-- src/modules/database/database.module.ts -->
<g id="node5" class="node">
<title>src/modules/database/database.module.ts</title>
<g id="a_node5"><a xlink:href="src/modules/database/database.module.ts" xlink:title="database.module.ts">
<path fill="#ddfeff" stroke="black" d="M944.08,-166.34C944.08,-166.34 859.67,-166.34 859.67,-166.34 856.71,-166.34 853.75,-163.38 853.75,-160.42 853.75,-160.42 853.75,-154.51 853.75,-154.51 853.75,-151.55 856.71,-148.59 859.67,-148.59 859.67,-148.59 944.08,-148.59 944.08,-148.59 947.04,-148.59 950,-151.55 950,-154.51 950,-154.51 950,-160.42 950,-160.42 950,-163.38 947.04,-166.34 944.08,-166.34"/>
<text text-anchor="start" x="861.75" y="-153.79" font-family="Helvetica,sans-Serif" font-size="9.00">database.module.ts</text>
</a>
</g>
</g>
<!-- src/graphql/graphql.module.ts&#45;&gt;src/modules/database/database.module.ts -->
<g id="edge4" class="edge">
<title>src/graphql/graphql.module.ts&#45;&gt;src/modules/database/database.module.ts</title>
<path fill="none" stroke="#000000" stroke-width="2" stroke-opacity="0.200000" d="M187.33,-130.21C193.48,-127.1 199.19,-122.96 203.25,-117.47 213.47,-103.63 198.57,-52.09 211.25,-40.47 306.33,46.74 372.48,-35.47 501.5,-35.47 501.5,-35.47 501.5,-35.47 669.88,-35.47 746.18,-35.47 773.69,-30 837.75,-71.47 864.03,-88.47 883.12,-120.5 893.06,-140.31"/>
<polygon fill="#000000" fill-opacity="0.200000" stroke="#000000" stroke-width="2" stroke-opacity="0.200000" points="891.06,-140.99 895.55,-145.48 894.84,-139.17 891.06,-140.99"/>
</g>
<!-- src/modules/element&#45;ai/element&#45;summary.module.ts -->
<g id="node6" class="node">
<title>src/modules/element&#45;ai/element&#45;summary.module.ts</title>
<g id="a_node6"><a xlink:href="src/modules/element-ai/element-summary.module.ts" xlink:title="element&#45;summary.module.ts">
<path fill="#ddfeff" stroke="black" d="M562.33,-112.34C562.33,-112.34 442.67,-112.34 442.67,-112.34 439.71,-112.34 436.75,-109.38 436.75,-106.42 436.75,-106.42 436.75,-100.51 436.75,-100.51 436.75,-97.55 439.71,-94.59 442.67,-94.59 442.67,-94.59 562.33,-94.59 562.33,-94.59 565.29,-94.59 568.25,-97.55 568.25,-100.51 568.25,-100.51 568.25,-106.42 568.25,-106.42 568.25,-109.38 565.29,-112.34 562.33,-112.34"/>
<text text-anchor="start" x="444.75" y="-99.79" font-family="Helvetica,sans-Serif" font-size="9.00">element&#45;summary.module.ts</text>
</a>
</g>
</g>
<!-- src/graphql/graphql.module.ts&#45;&gt;src/modules/element&#45;ai/element&#45;summary.module.ts -->
<g id="edge5" class="edge">
<title>src/graphql/graphql.module.ts&#45;&gt;src/modules/element&#45;ai/element&#45;summary.module.ts</title>
<path fill="none" stroke="#000000" stroke-width="2" stroke-opacity="0.200000" d="M195.47,-134.94C253.66,-128.96 357.08,-118.32 427.43,-111.08"/>
<polygon fill="#000000" fill-opacity="0.200000" stroke="#000000" stroke-width="2" stroke-opacity="0.200000" points="427.51,-113.19 433.26,-110.48 427.08,-109.01 427.51,-113.19"/>
</g>
<!-- src/modules/element&#45;recommendation/element&#45;recommendation.module.ts -->
<g id="node7" class="node">
<title>src/modules/element&#45;recommendation/element&#45;recommendation.module.ts</title>
<g id="a_node7"><a xlink:href="src/modules/element-recommendation/element-recommendation.module.ts" xlink:title="element&#45;recommendation.module.ts">
<path fill="#ddfeff" stroke="black" d="M578.08,-270.34C578.08,-270.34 426.92,-270.34 426.92,-270.34 423.96,-270.34 421,-267.38 421,-264.42 421,-264.42 421,-258.51 421,-258.51 421,-255.55 423.96,-252.59 426.92,-252.59 426.92,-252.59 578.08,-252.59 578.08,-252.59 581.04,-252.59 584,-255.55 584,-258.51 584,-258.51 584,-264.42 584,-264.42 584,-267.38 581.04,-270.34 578.08,-270.34"/>
<text text-anchor="start" x="429" y="-257.79" font-family="Helvetica,sans-Serif" font-size="9.00">element&#45;recommendation.module.ts</text>
</a>
</g>
</g>
<!-- src/graphql/graphql.module.ts&#45;&gt;src/modules/element&#45;recommendation/element&#45;recommendation.module.ts -->
<g id="edge6" class="edge">
<title>src/graphql/graphql.module.ts&#45;&gt;src/modules/element&#45;recommendation/element&#45;recommendation.module.ts</title>
<path fill="none" stroke="#000000" stroke-width="2" stroke-opacity="0.200000" d="M195.49,-146.56C200.79,-147.28 206.14,-147.94 211.25,-148.47 232.7,-150.68 388.78,-145.25 405,-159.47 419.29,-171.99 402.56,-185.59 413,-201.47 426.92,-222.64 451.16,-238.29 470.75,-248.29"/>
<polygon fill="#000000" fill-opacity="0.200000" stroke="#000000" stroke-width="2" stroke-opacity="0.200000" points="469.79,-250.16 476.1,-250.9 471.63,-246.38 469.79,-250.16"/>
</g>
<!-- src/modules/element&#45;search/element&#45;search.module.ts -->
<g id="node8" class="node">
<title>src/modules/element&#45;search/element&#45;search.module.ts</title>
<g id="a_node8"><a xlink:href="src/modules/element-search/element-search.module.ts" xlink:title="element&#45;search.module.ts">
<path fill="#ddfeff" stroke="black" d="M723.83,-308.34C723.83,-308.34 613.92,-308.34 613.92,-308.34 610.96,-308.34 608,-305.38 608,-302.42 608,-302.42 608,-296.51 608,-296.51 608,-293.55 610.96,-290.59 613.92,-290.59 613.92,-290.59 723.83,-290.59 723.83,-290.59 726.79,-290.59 729.75,-293.55 729.75,-296.51 729.75,-296.51 729.75,-302.42 729.75,-302.42 729.75,-305.38 726.79,-308.34 723.83,-308.34"/>
<text text-anchor="start" x="616" y="-295.79" font-family="Helvetica,sans-Serif" font-size="9.00">element&#45;search.module.ts</text>
</a>
</g>
</g>
<!-- src/graphql/graphql.module.ts&#45;&gt;src/modules/element&#45;search/element&#45;search.module.ts -->
<g id="edge7" class="edge">
<title>src/graphql/graphql.module.ts&#45;&gt;src/modules/element&#45;search/element&#45;search.module.ts</title>
<path fill="none" stroke="#000000" stroke-width="2" stroke-opacity="0.200000" d="M152.83,-148.71C158.21,-184.61 179.54,-313.91 211.25,-337.47 347.1,-438.37 427.32,-376.4 592,-337.47 611.72,-332.8 632.15,-322.18 646.84,-313.35"/>
<polygon fill="#000000" fill-opacity="0.200000" stroke="#000000" stroke-width="2" stroke-opacity="0.200000" points="647.8,-315.22 651.79,-310.28 645.59,-311.66 647.8,-315.22"/>
</g>
<!-- src/modules/element/element.module.ts -->
<g id="node9" class="node">
<title>src/modules/element/element.module.ts</title>
<g id="a_node9"><a xlink:href="src/modules/element/element.module.ts" xlink:title="element.module.ts">
<path fill="#ddfeff" stroke="black" d="M708.46,-140.34C708.46,-140.34 629.29,-140.34 629.29,-140.34 626.33,-140.34 623.38,-137.38 623.38,-134.42 623.38,-134.42 623.38,-128.51 623.38,-128.51 623.38,-125.55 626.33,-122.59 629.29,-122.59 629.29,-122.59 708.46,-122.59 708.46,-122.59 711.42,-122.59 714.38,-125.55 714.38,-128.51 714.38,-128.51 714.38,-134.42 714.38,-134.42 714.38,-137.38 711.42,-140.34 708.46,-140.34"/>
<text text-anchor="start" x="631.38" y="-127.79" font-family="Helvetica,sans-Serif" font-size="9.00">element.module.ts</text>
</a>
</g>
</g>
<!-- src/graphql/graphql.module.ts&#45;&gt;src/modules/element/element.module.ts -->
<g id="edge8" class="edge">
<title>src/graphql/graphql.module.ts&#45;&gt;src/modules/element/element.module.ts</title>
<path fill="none" stroke="#000000" stroke-width="2" stroke-opacity="0.200000" d="M186.47,-130.22C192.85,-127.1 198.86,-122.96 203.25,-117.47 215.66,-101.94 195.99,-86.2 211.25,-73.47 243.73,-46.36 551.93,-59.9 592,-73.47 616.56,-81.78 639.44,-101.58 653.51,-115.74"/>
<polygon fill="#000000" fill-opacity="0.200000" stroke="#000000" stroke-width="2" stroke-opacity="0.200000" points="651.91,-117.1 657.59,-119.97 654.94,-114.19 651.91,-117.1"/>
</g>
<!-- src/modules/user&#45;liked/user&#45;liked.module.ts -->
<g id="node10" class="node">
<title>src/modules/user&#45;liked/user&#45;liked.module.ts</title>
<g id="a_node10"><a xlink:href="src/modules/user-liked/user-liked.module.ts" xlink:title="user&#45;liked.module.ts">
<path fill="#ddfeff" stroke="black" d="M545.83,-172.34C545.83,-172.34 459.17,-172.34 459.17,-172.34 456.21,-172.34 453.25,-169.38 453.25,-166.42 453.25,-166.42 453.25,-160.51 453.25,-160.51 453.25,-157.55 456.21,-154.59 459.17,-154.59 459.17,-154.59 545.83,-154.59 545.83,-154.59 548.79,-154.59 551.75,-157.55 551.75,-160.51 551.75,-160.51 551.75,-166.42 551.75,-166.42 551.75,-169.38 548.79,-172.34 545.83,-172.34"/>
<text text-anchor="start" x="461.25" y="-159.79" font-family="Helvetica,sans-Serif" font-size="9.00">user&#45;liked.module.ts</text>
</a>
</g>
</g>
<!-- src/graphql/graphql.module.ts&#45;&gt;src/modules/user&#45;liked/user&#45;liked.module.ts -->
<g id="edge9" class="edge">
<title>src/graphql/graphql.module.ts&#45;&gt;src/modules/user&#45;liked/user&#45;liked.module.ts</title>
<path fill="none" stroke="#000000" stroke-width="2" stroke-opacity="0.200000" d="M195.56,-139.81C246.19,-140.52 331.75,-142.73 405,-149.47 417.74,-150.64 431.36,-152.34 444.24,-154.15"/>
<polygon fill="#000000" fill-opacity="0.200000" stroke="#000000" stroke-width="2" stroke-opacity="0.200000" points="443.79,-156.21 450.02,-154.99 444.39,-152.05 443.79,-156.21"/>
</g>
<!-- src/modules/user/user.module.ts -->
<g id="node11" class="node">
<title>src/modules/user/user.module.ts</title>
<g id="a_node11"><a xlink:href="src/modules/user/user.module.ts" xlink:title="user.module.ts">
<path fill="#ddfeff" stroke="black" d="M823.83,-166.34C823.83,-166.34 759.67,-166.34 759.67,-166.34 756.71,-166.34 753.75,-163.38 753.75,-160.42 753.75,-160.42 753.75,-154.51 753.75,-154.51 753.75,-151.55 756.71,-148.59 759.67,-148.59 759.67,-148.59 823.83,-148.59 823.83,-148.59 826.79,-148.59 829.75,-151.55 829.75,-154.51 829.75,-154.51 829.75,-160.42 829.75,-160.42 829.75,-163.38 826.79,-166.34 823.83,-166.34"/>
<text text-anchor="start" x="761.75" y="-153.79" font-family="Helvetica,sans-Serif" font-size="9.00">user.module.ts</text>
</a>
</g>
</g>
<!-- src/graphql/graphql.module.ts&#45;&gt;src/modules/user/user.module.ts -->
<g id="edge10" class="edge">
<title>src/graphql/graphql.module.ts&#45;&gt;src/modules/user/user.module.ts</title>
<path fill="none" stroke="#000000" stroke-width="2" stroke-opacity="0.200000" d="M187.23,-130.13C193.39,-127.03 199.13,-122.92 203.25,-117.47 220.28,-94.95 190.07,-73.12 211.25,-54.47 242.99,-26.5 550.42,-47.64 592,-55.47 660.2,-68.3 678.26,-75.74 737.75,-111.47 751.84,-119.93 765.79,-132.24 775.84,-142"/>
<polygon fill="#000000" fill-opacity="0.200000" stroke="#000000" stroke-width="2" stroke-opacity="0.200000" points="774.26,-143.38 779.99,-146.13 777.22,-140.41 774.26,-143.38"/>
</g>
<!-- src/modules/workshop&#45;generation/workshop&#45;generation.module.ts -->
<g id="node12" class="node">
<title>src/modules/workshop&#45;generation/workshop&#45;generation.module.ts</title>
<g id="a_node12"><a xlink:href="src/modules/workshop-generation/workshop-generation.module.ts" xlink:title="workshop&#45;generation.module.ts">
<path fill="#ddfeff" stroke="black" d="M378.71,-308.34C378.71,-308.34 245.54,-308.34 245.54,-308.34 242.58,-308.34 239.62,-305.38 239.62,-302.42 239.62,-302.42 239.62,-296.51 239.62,-296.51 239.62,-293.55 242.58,-290.59 245.54,-290.59 245.54,-290.59 378.71,-290.59 378.71,-290.59 381.67,-290.59 384.62,-293.55 384.62,-296.51 384.62,-296.51 384.62,-302.42 384.62,-302.42 384.62,-305.38 381.67,-308.34 378.71,-308.34"/>
<text text-anchor="start" x="247.62" y="-295.79" font-family="Helvetica,sans-Serif" font-size="9.00">workshop&#45;generation.module.ts</text>
</a>
</g>
</g>
<!-- src/graphql/graphql.module.ts&#45;&gt;src/modules/workshop&#45;generation/workshop&#45;generation.module.ts -->
<g id="edge11" class="edge">
<title>src/graphql/graphql.module.ts&#45;&gt;src/modules/workshop&#45;generation/workshop&#45;generation.module.ts</title>
<path fill="none" stroke="#000000" stroke-width="2" stroke-opacity="0.200000" d="M152.6,-148.56C156.09,-173.41 169.35,-242.92 211.25,-277.47 217.24,-282.4 224.09,-286.29 231.34,-289.35"/>
<polygon fill="#000000" fill-opacity="0.200000" stroke="#000000" stroke-width="2" stroke-opacity="0.200000" points="230.15,-291.15 236.5,-291.29 231.62,-287.22 230.15,-291.15"/>
</g>
<!-- src/modules/workshop&#45;recommendation/workshop&#45;recommendation.module.ts -->
<g id="node13" class="node">
<title>src/modules/workshop&#45;recommendation/workshop&#45;recommendation.module.ts</title>
<g id="a_node13"><a xlink:href="src/modules/workshop-recommendation/workshop-recommendation.module.ts" xlink:title="workshop&#45;recommendation.module.ts">
<path fill="#ddfeff" stroke="black" d="M391.08,-248.34C391.08,-248.34 233.17,-248.34 233.17,-248.34 230.21,-248.34 227.25,-245.38 227.25,-242.42 227.25,-242.42 227.25,-236.51 227.25,-236.51 227.25,-233.55 230.21,-230.59 233.17,-230.59 233.17,-230.59 391.08,-230.59 391.08,-230.59 394.04,-230.59 397,-233.55 397,-236.51 397,-236.51 397,-242.42 397,-242.42 397,-245.38 394.04,-248.34 391.08,-248.34"/>
<text text-anchor="start" x="235.25" y="-235.79" font-family="Helvetica,sans-Serif" font-size="9.00">workshop&#45;recommendation.module.ts</text>
</a>
</g>
</g>
<!-- src/graphql/graphql.module.ts&#45;&gt;src/modules/workshop&#45;recommendation/workshop&#45;recommendation.module.ts -->
<g id="edge12" class="edge">
<title>src/graphql/graphql.module.ts&#45;&gt;src/modules/workshop&#45;recommendation/workshop&#45;recommendation.module.ts</title>
<path fill="none" stroke="#000000" stroke-width="2" stroke-opacity="0.200000" d="M155.78,-148.61C164.03,-165.16 183.77,-199.97 211.25,-217.47 217.39,-221.37 224.12,-224.59 231.09,-227.24"/>
<polygon fill="#000000" fill-opacity="0.200000" stroke="#000000" stroke-width="2" stroke-opacity="0.200000" points="230.16,-229.14 236.51,-229.12 231.53,-225.17 230.16,-229.14"/>
</g>
<!-- src/modules/workshop/workshop.module.ts -->
<g id="node14" class="node">
<title>src/modules/workshop/workshop.module.ts</title>
<g id="a_node14"><a xlink:href="src/modules/workshop/workshop.module.ts" xlink:title="workshop.module.ts">
<path fill="#ddfeff" stroke="black" d="M711.83,-238.34C711.83,-238.34 625.92,-238.34 625.92,-238.34 622.96,-238.34 620,-235.38 620,-232.42 620,-232.42 620,-226.51 620,-226.51 620,-223.55 622.96,-220.59 625.92,-220.59 625.92,-220.59 711.83,-220.59 711.83,-220.59 714.79,-220.59 717.75,-223.55 717.75,-226.51 717.75,-226.51 717.75,-232.42 717.75,-232.42 717.75,-235.38 714.79,-238.34 711.83,-238.34"/>
<text text-anchor="start" x="628" y="-225.79" font-family="Helvetica,sans-Serif" font-size="9.00">workshop.module.ts</text>
</a>
</g>
</g>
<!-- src/graphql/graphql.module.ts&#45;&gt;src/modules/workshop/workshop.module.ts -->
<g id="edge13" class="edge">
<title>src/graphql/graphql.module.ts&#45;&gt;src/modules/workshop/workshop.module.ts</title>
<path fill="none" stroke="#000000" stroke-width="2" stroke-opacity="0.200000" d="M177.84,-130.16C186.24,-126.7 195.39,-122.4 203.25,-117.47 207.25,-114.95 206.95,-112.42 211.25,-110.47 249.87,-92.94 560.65,-54.9 592,-83.47 606.19,-96.39 591.31,-152.35 600,-169.47 609.85,-188.87 628.88,-204.82 644.29,-215.39"/>
<polygon fill="#000000" fill-opacity="0.200000" stroke="#000000" stroke-width="2" stroke-opacity="0.200000" points="642.81,-216.93 648.98,-218.47 645.12,-213.42 642.81,-216.93"/>
</g>
<!-- src/modules/admin/admin.module.ts&#45;&gt;src/modules/database/database.module.ts -->
<g id="edge14" class="edge">
<title>src/modules/admin/admin.module.ts&#45;&gt;src/modules/database/database.module.ts</title>
<path fill="none" stroke="#000000" stroke-width="2" stroke-opacity="0.200000" d="M336.07,-188.76C356.02,-196.31 385.9,-206.36 413,-210.47 452.33,-216.43 559.87,-233.92 592,-210.47 601.42,-203.59 590.99,-192.88 600,-185.47 647.6,-146.31 691.44,-210.14 737.75,-169.47 748.76,-159.79 734.19,-146.49 745.75,-137.47 761.86,-124.88 817.55,-134.34 837.75,-137.47 848.12,-139.07 859.12,-142.07 868.98,-145.27"/>
<polygon fill="#000000" fill-opacity="0.200000" stroke="#000000" stroke-width="2" stroke-opacity="0.200000" points="868.09,-147.18 874.44,-147.13 869.44,-143.21 868.09,-147.18"/>
</g>
<!-- src/modules/admin/admin.module.ts&#45;&gt;src/modules/element&#45;ai/element&#45;summary.module.ts -->
<g id="edge15" class="edge">
<title>src/modules/admin/admin.module.ts&#45;&gt;src/modules/element&#45;ai/element&#45;summary.module.ts</title>
<path fill="none" stroke="#000000" stroke-width="2" stroke-opacity="0.200000" d="M336.22,-170.15C369.93,-156.55 432.66,-131.24 470.4,-116.01"/>
<polygon fill="#000000" fill-opacity="0.200000" stroke="#000000" stroke-width="2" stroke-opacity="0.200000" points="470.92,-118.07 475.7,-113.87 469.35,-114.17 470.92,-118.07"/>
</g>
<!-- src/modules/admin/admin.module.ts&#45;&gt;src/modules/element/element.module.ts -->
<g id="edge16" class="edge">
<title>src/modules/admin/admin.module.ts&#45;&gt;src/modules/element/element.module.ts</title>
<path fill="none" stroke="#000000" stroke-width="2" stroke-opacity="0.200000" d="M346.57,-188.74C365.83,-193.59 390.58,-199.03 413,-201.47 452.54,-205.77 560.46,-225.7 592,-201.47 602.94,-193.06 591.66,-182.46 600,-171.47 608.82,-159.85 622.07,-150.97 634.53,-144.56"/>
<polygon fill="#000000" fill-opacity="0.200000" stroke="#000000" stroke-width="2" stroke-opacity="0.200000" points="635.32,-146.51 639.82,-142.02 633.5,-142.73 635.32,-146.51"/>
</g>
<!-- src/modules/element&#45;ai/element&#45;summary.module.ts&#45;&gt;src/modules/database/database.module.ts -->
<g id="edge17" class="edge">
<title>src/modules/element&#45;ai/element&#45;summary.module.ts&#45;&gt;src/modules/database/database.module.ts</title>
<path fill="none" stroke="#000000" stroke-width="2" stroke-opacity="0.200000" d="M537.41,-94.11C599.71,-78.74 735.39,-53.89 837.75,-96.47 859.8,-105.64 878.5,-126.43 889.7,-141.19"/>
<polygon fill="#000000" fill-opacity="0.200000" stroke="#000000" stroke-width="2" stroke-opacity="0.200000" points="887.84,-142.2 893.07,-145.81 891.23,-139.73 887.84,-142.2"/>
</g>
<!-- src/modules/element&#45;ai/element&#45;summary.module.ts&#45;&gt;src/modules/element/element.module.ts -->
<g id="edge18" class="edge">
<title>src/modules/element&#45;ai/element&#45;summary.module.ts&#45;&gt;src/modules/element/element.module.ts</title>
<path fill="none" stroke="#000000" stroke-width="2" stroke-opacity="0.200000" d="M558.23,-112.79C576.29,-115.87 596.35,-119.28 614.32,-122.34"/>
<polygon fill="#000000" fill-opacity="0.200000" stroke="#000000" stroke-width="2" stroke-opacity="0.200000" points="613.7,-124.37 619.97,-123.31 614.41,-120.23 613.7,-124.37"/>
</g>
<!-- src/modules/element&#45;recommendation/element&#45;recommendation.module.ts&#45;&gt;src/modules/database/database.module.ts -->
<g id="edge19" class="edge">
<title>src/modules/element&#45;recommendation/element&#45;recommendation.module.ts&#45;&gt;src/modules/database/database.module.ts</title>
<path fill="none" stroke="#000000" stroke-width="2" stroke-opacity="0.200000" d="M572.66,-252.24C579.81,-249.07 586.47,-244.9 592,-239.47 601.84,-229.79 589.13,-217.96 600,-209.47 620.81,-193.19 812.79,-214.11 837.75,-205.47 856.67,-198.91 874.47,-184.31 886.31,-172.92"/>
<polygon fill="#000000" fill-opacity="0.200000" stroke="#000000" stroke-width="2" stroke-opacity="0.200000" points="887.66,-174.54 890.42,-168.81 884.69,-171.57 887.66,-174.54"/>
</g>
<!-- src/modules/element&#45;recommendation/element&#45;recommendation.module.ts&#45;&gt;src/modules/element/element.module.ts -->
<g id="edge20" class="edge">
<title>src/modules/element&#45;recommendation/element&#45;recommendation.module.ts&#45;&gt;src/modules/element/element.module.ts</title>
<path fill="none" stroke="#000000" stroke-width="2" stroke-opacity="0.200000" d="M526.48,-252.11C545.55,-243.55 572.61,-229.48 592,-211.47 596.7,-207.1 595.94,-204.42 600,-199.47 615.99,-179.95 636.78,-159.76 651.11,-146.5"/>
<polygon fill="#000000" fill-opacity="0.200000" stroke="#000000" stroke-width="2" stroke-opacity="0.200000" points="652.34,-148.22 655.35,-142.63 649.5,-145.13 652.34,-148.22"/>
</g>
<!-- src/modules/element&#45;recommendation/element&#45;recommendation.module.ts&#45;&gt;src/modules/workshop/workshop.module.ts -->
<g id="edge21" class="edge">
<title>src/modules/element&#45;recommendation/element&#45;recommendation.module.ts&#45;&gt;src/modules/workshop/workshop.module.ts</title>
<path fill="none" stroke="#000000" stroke-width="2" stroke-opacity="0.200000" d="M551.49,-252.12C570.14,-248.49 591.65,-244.3 611.07,-240.52"/>
<polygon fill="#000000" fill-opacity="0.200000" stroke="#000000" stroke-width="2" stroke-opacity="0.200000" points="611.37,-242.61 616.86,-239.4 610.57,-238.48 611.37,-242.61"/>
</g>
<!-- src/modules/element&#45;search/element&#45;search.module.ts&#45;&gt;src/modules/database/database.module.ts -->
<g id="edge22" class="edge">
<title>src/modules/element&#45;search/element&#45;search.module.ts&#45;&gt;src/modules/database/database.module.ts</title>
<path fill="none" stroke="#000000" stroke-width="2" stroke-opacity="0.200000" d="M729.86,-304.6C764.25,-304.56 806.64,-299.14 837.75,-277.47 873.17,-252.79 890.24,-201.89 897.07,-175"/>
<polygon fill="#000000" fill-opacity="0.200000" stroke="#000000" stroke-width="2" stroke-opacity="0.200000" points="899.03,-175.84 898.37,-169.52 894.94,-174.87 899.03,-175.84"/>
</g>
<!-- src/modules/element&#45;search/element&#45;search.module.ts&#45;&gt;src/modules/user/user.module.ts -->
<g id="edge23" class="edge">
<title>src/modules/element&#45;search/element&#45;search.module.ts&#45;&gt;src/modules/user/user.module.ts</title>
<path fill="none" stroke="#000000" stroke-width="2" stroke-opacity="0.200000" d="M700.65,-290.1C713.36,-285.02 727.48,-277.65 737.75,-267.47 764.21,-241.23 779.32,-199.16 786.19,-175.37"/>
<polygon fill="#000000" fill-opacity="0.200000" stroke="#000000" stroke-width="2" stroke-opacity="0.200000" points="788.22,-175.93 787.77,-169.59 784.17,-174.82 788.22,-175.93"/>
</g>
<!-- src/modules/element/element.module.ts&#45;&gt;src/modules/database/database.module.ts -->
<g id="edge24" class="edge">
<title>src/modules/element/element.module.ts&#45;&gt;src/modules/database/database.module.ts</title>
<path fill="none" stroke="#000000" stroke-width="2" stroke-opacity="0.200000" d="M714.64,-124.53C748.8,-120.65 796.8,-118.23 837.75,-127.47 852.18,-130.72 867.17,-137.67 878.93,-144.07"/>
<polygon fill="#000000" fill-opacity="0.200000" stroke="#000000" stroke-width="2" stroke-opacity="0.200000" points="877.61,-145.74 883.87,-146.86 879.68,-142.08 877.61,-145.74"/>
</g>
<!-- src/modules/element/element.module.ts&#45;&gt;src/modules/user/user.module.ts -->
<g id="edge25" class="edge">
<title>src/modules/element/element.module.ts&#45;&gt;src/modules/user/user.module.ts</title>
<path fill="none" stroke="#000000" stroke-width="2" stroke-opacity="0.200000" d="M713.17,-140.78C723.44,-142.99 734.43,-145.35 744.81,-147.58"/>
<polygon fill="#000000" fill-opacity="0.200000" stroke="#000000" stroke-width="2" stroke-opacity="0.200000" points="744.09,-149.58 750.39,-148.79 744.97,-145.47 744.09,-149.58"/>
</g>
<!-- src/modules/user&#45;liked/user&#45;liked.module.ts&#45;&gt;src/modules/database/database.module.ts -->
<g id="edge26" class="edge">
<title>src/modules/user&#45;liked/user&#45;liked.module.ts&#45;&gt;src/modules/database/database.module.ts</title>
<path fill="none" stroke="#000000" stroke-width="2" stroke-opacity="0.200000" d="M552.22,-160.72C566.64,-157.64 581.39,-151.9 592,-141.47 601.84,-131.79 589.06,-119.87 600,-111.47 641.91,-79.27 787.46,-101.22 837.75,-117.47 854.52,-122.88 871.26,-133.81 883.29,-142.87"/>
<polygon fill="#000000" fill-opacity="0.200000" stroke="#000000" stroke-width="2" stroke-opacity="0.200000" points="881.72,-144.31 887.74,-146.35 884.3,-141 881.72,-144.31"/>
</g>
<!-- src/modules/user&#45;liked/user&#45;liked.module.ts&#45;&gt;src/modules/element/element.module.ts -->
<g id="edge27" class="edge">
<title>src/modules/user&#45;liked/user&#45;liked.module.ts&#45;&gt;src/modules/element/element.module.ts</title>
<path fill="none" stroke="#000000" stroke-width="2" stroke-opacity="0.200000" d="M551.49,-154.12C571.13,-150.3 593.95,-145.86 614.15,-141.92"/>
<polygon fill="#000000" fill-opacity="0.200000" stroke="#000000" stroke-width="2" stroke-opacity="0.200000" points="614.47,-144 619.96,-140.79 613.67,-139.88 614.47,-144"/>
</g>
<!-- src/modules/user/user.module.ts&#45;&gt;src/modules/database/database.module.ts -->
<g id="edge28" class="edge">
<title>src/modules/user/user.module.ts&#45;&gt;src/modules/database/database.module.ts</title>
<path fill="none" stroke="#000000" stroke-width="2" stroke-opacity="0.200000" d="M829.96,-157.47C834.69,-157.47 839.62,-157.47 844.57,-157.47"/>
<polygon fill="#000000" fill-opacity="0.200000" stroke="#000000" stroke-width="2" stroke-opacity="0.200000" points="844.45,-159.57 850.45,-157.47 844.45,-155.37 844.45,-159.57"/>
</g>
<!-- src/modules/workshop&#45;generation/workshop&#45;generation.module.ts&#45;&gt;src/modules/database/database.module.ts -->
<g id="edge29" class="edge">
<title>src/modules/workshop&#45;generation/workshop&#45;generation.module.ts&#45;&gt;src/modules/database/database.module.ts</title>
<path fill="none" stroke="#000000" stroke-width="2" stroke-opacity="0.200000" d="M353.95,-308.82C422.47,-323.47 556.6,-347.34 592,-318.47 605.71,-307.28 586.79,-291.23 600,-279.47 622.94,-259.03 707.74,-274.06 737.75,-267.47 783.89,-257.33 798.9,-258.33 837.75,-231.47 860.19,-215.95 879.45,-190.54 890.6,-173.91"/>
<polygon fill="#000000" fill-opacity="0.200000" stroke="#000000" stroke-width="2" stroke-opacity="0.200000" points="892.24,-175.24 893.75,-169.07 888.72,-172.95 892.24,-175.24"/>
</g>
<!-- src/modules/workshop&#45;generation/workshop&#45;generation.module.ts&#45;&gt;src/modules/element&#45;recommendation/element&#45;recommendation.module.ts -->
<g id="edge30" class="edge">
<title>src/modules/workshop&#45;generation/workshop&#45;generation.module.ts&#45;&gt;src/modules/element&#45;recommendation/element&#45;recommendation.module.ts</title>
<path fill="none" stroke="#000000" stroke-width="2" stroke-opacity="0.200000" d="M359.21,-290.17C385.55,-284.86 418.75,-278.16 446.45,-272.57"/>
<polygon fill="#000000" fill-opacity="0.200000" stroke="#000000" stroke-width="2" stroke-opacity="0.200000" points="446.81,-274.64 452.27,-271.4 445.98,-270.52 446.81,-274.64"/>
</g>
<!-- src/modules/workshop&#45;generation/workshop&#45;generation.module.ts&#45;&gt;src/modules/workshop/workshop.module.ts -->
<g id="edge31" class="edge">
<title>src/modules/workshop&#45;generation/workshop&#45;generation.module.ts&#45;&gt;src/modules/workshop/workshop.module.ts</title>
<path fill="none" stroke="#000000" stroke-width="2" stroke-opacity="0.200000" d="M365.69,-308.81C436.78,-320.15 558.53,-334.63 592,-307.47 605.4,-296.59 589.93,-283.48 600,-269.47 608.38,-257.8 621.3,-248.98 633.63,-242.62"/>
<polygon fill="#000000" fill-opacity="0.200000" stroke="#000000" stroke-width="2" stroke-opacity="0.200000" points="634.37,-244.6 638.87,-240.11 632.55,-240.81 634.37,-244.6"/>
</g>
<!-- src/modules/workshop&#45;recommendation/workshop&#45;recommendation.module.ts&#45;&gt;src/modules/database/database.module.ts -->
<g id="edge32" class="edge">
<title>src/modules/workshop&#45;recommendation/workshop&#45;recommendation.module.ts&#45;&gt;src/modules/database/database.module.ts</title>
<path fill="none" stroke="#000000" stroke-width="2" stroke-opacity="0.200000" d="M397.27,-237.9C473.59,-235.76 576.49,-230.79 592,-219.47 599.73,-213.82 592.12,-204.9 600,-199.47 621.75,-184.47 812.35,-202.75 837.75,-195.47 854.09,-190.78 870.48,-180.72 882.46,-172.13"/>
<polygon fill="#000000" fill-opacity="0.200000" stroke="#000000" stroke-width="2" stroke-opacity="0.200000" points="883.67,-173.84 887.22,-168.57 881.16,-170.47 883.67,-173.84"/>
</g>
<!-- src/modules/workshop&#45;recommendation/workshop&#45;recommendation.module.ts&#45;&gt;src/modules/element&#45;recommendation/element&#45;recommendation.module.ts -->
<g id="edge33" class="edge">
<title>src/modules/workshop&#45;recommendation/workshop&#45;recommendation.module.ts&#45;&gt;src/modules/element&#45;recommendation/element&#45;recommendation.module.ts</title>
<path fill="none" stroke="#000000" stroke-width="2" stroke-opacity="0.200000" d="M393.29,-248.83C399.69,-249.58 406.18,-250.33 412.64,-251.09"/>
<polygon fill="#000000" fill-opacity="0.200000" stroke="#000000" stroke-width="2" stroke-opacity="0.200000" points="412.2,-253.15 418.4,-251.76 412.69,-248.98 412.2,-253.15"/>
</g>
<!-- src/modules/workshop&#45;recommendation/workshop&#45;recommendation.module.ts&#45;&gt;src/modules/workshop/workshop.module.ts -->
<g id="edge34" class="edge">
<title>src/modules/workshop&#45;recommendation/workshop&#45;recommendation.module.ts&#45;&gt;src/modules/workshop/workshop.module.ts</title>
<path fill="none" stroke="#000000" stroke-width="2" stroke-opacity="0.200000" d="M351.51,-248.81C369.72,-254.92 390.58,-264.61 405,-279.47 411.67,-286.34 405.07,-294.1 413,-299.47 429.47,-310.62 576.23,-311.58 592,-299.47 602.94,-291.06 591.66,-280.46 600,-269.47 608.82,-257.85 622.07,-248.97 634.53,-242.56"/>
<polygon fill="#000000" fill-opacity="0.200000" stroke="#000000" stroke-width="2" stroke-opacity="0.200000" points="635.32,-244.51 639.82,-240.02 633.5,-240.73 635.32,-244.51"/>
</g>
<!-- src/modules/workshop/workshop.module.ts&#45;&gt;src/modules/database/database.module.ts -->
<g id="edge35" class="edge">
<title>src/modules/workshop/workshop.module.ts&#45;&gt;src/modules/database/database.module.ts</title>
<path fill="none" stroke="#000000" stroke-width="2" stroke-opacity="0.200000" d="M717.92,-235.32C752.69,-237.52 799.99,-236.23 837.75,-219.47 859.75,-209.7 878.46,-188.66 889.68,-173.81"/>
<polygon fill="#000000" fill-opacity="0.200000" stroke="#000000" stroke-width="2" stroke-opacity="0.200000" points="891.23,-175.24 893.06,-169.15 887.83,-172.77 891.23,-175.24"/>
</g>
<!-- src/modules/workshop/workshop.module.ts&#45;&gt;src/modules/user/user.module.ts -->
<g id="edge36" class="edge">
<title>src/modules/workshop/workshop.module.ts&#45;&gt;src/modules/user/user.module.ts</title>
<path fill="none" stroke="#000000" stroke-width="2" stroke-opacity="0.200000" d="M685.18,-220.35C705.96,-207.97 743.26,-185.75 767.51,-171.31"/>
<polygon fill="#000000" fill-opacity="0.200000" stroke="#000000" stroke-width="2" stroke-opacity="0.200000" points="768.5,-173.16 772.58,-168.29 766.35,-169.55 768.5,-173.16"/>
</g>
</g>
</svg>
