<?xml version="1.0" encoding="UTF-8" standalone="no"?>
<!DOCTYPE svg PUBLIC "-//W3C//DTD SVG 1.1//EN"
 "http://www.w3.org/Graphics/SVG/1.1/DTD/svg11.dtd">
<!-- Generated by graphviz version 9.0.0 (20230911.1827)
 -->
<!-- Title: dependency&#45;cruiser output Pages: 1 -->
<svg width="820pt" height="304pt"
 viewBox="0.00 0.00 820.25 304.00" xmlns="http://www.w3.org/2000/svg" xmlns:xlink="http://www.w3.org/1999/xlink">
<g id="graph0" class="graph" transform="scale(1 1) rotate(0) translate(4 300)">
<title>dependency&#45;cruiser output</title>
<polygon fill="white" stroke="none" points="-4,4 -4,-300 816.25,-300 816.25,4 -4,4"/>
<g id="clust1" class="cluster">
<title>cluster_src</title>
<path fill="#ffffff" stroke="black" stroke-width="2" d="M20,-8C20,-8 792.25,-8 792.25,-8 798.25,-8 804.25,-14 804.25,-20 804.25,-20 804.25,-276 804.25,-276 804.25,-282 798.25,-288 792.25,-288 792.25,-288 20,-288 20,-288 14,-288 8,-282 8,-276 8,-276 8,-20 8,-20 8,-14 14,-8 20,-8"/>
<text text-anchor="middle" x="406.12" y="-275.45" font-family="Helvetica,sans-Serif" font-weight="bold" font-size="9.00">src</text>
</g>
<g id="clust2" class="cluster">
<title>cluster_src/auth</title>
<path fill="#ffffff" stroke="black" stroke-width="2" d="M116.5,-53C116.5,-53 184.5,-53 184.5,-53 190.5,-53 196.5,-59 196.5,-65 196.5,-65 196.5,-93 196.5,-93 196.5,-99 190.5,-105 184.5,-105 184.5,-105 116.5,-105 116.5,-105 110.5,-105 104.5,-99 104.5,-93 104.5,-93 104.5,-65 104.5,-65 104.5,-59 110.5,-53 116.5,-53"/>
<text text-anchor="middle" x="150.5" y="-92.45" font-family="Helvetica,sans-Serif" font-weight="bold" font-size="9.00">auth</text>
</g>
<g id="clust3" class="cluster">
<title>cluster_src/graphql</title>
<path fill="#ffffff" stroke="black" stroke-width="2" d="M109.75,-113C109.75,-113 191.25,-113 191.25,-113 197.25,-113 203.25,-119 203.25,-125 203.25,-125 203.25,-153 203.25,-153 203.25,-159 197.25,-165 191.25,-165 191.25,-165 109.75,-165 109.75,-165 103.75,-165 97.75,-159 97.75,-153 97.75,-153 97.75,-125 97.75,-125 97.75,-119 103.75,-113 109.75,-113"/>
<text text-anchor="middle" x="150.5" y="-152.45" font-family="Helvetica,sans-Serif" font-weight="bold" font-size="9.00">graphql</text>
</g>
<g id="clust4" class="cluster">
<title>cluster_src/modules</title>
<path fill="#ffffff" stroke="black" stroke-width="2" d="M223.25,-22C223.25,-22 784.25,-22 784.25,-22 790.25,-22 796.25,-28 796.25,-34 796.25,-34 796.25,-250 796.25,-250 796.25,-256 790.25,-262 784.25,-262 784.25,-262 223.25,-262 223.25,-262 217.25,-262 211.25,-256 211.25,-250 211.25,-250 211.25,-34 211.25,-34 211.25,-28 217.25,-22 223.25,-22"/>
<text text-anchor="middle" x="503.75" y="-249.45" font-family="Helvetica,sans-Serif" font-weight="bold" font-size="9.00">modules</text>
</g>
<g id="clust5" class="cluster">
<title>cluster_src/modules/admin</title>
<path fill="#ffffff" stroke="black" stroke-width="2" d="M231.25,-45C231.25,-45 306.75,-45 306.75,-45 312.75,-45 318.75,-51 318.75,-57 318.75,-57 318.75,-85 318.75,-85 318.75,-91 312.75,-97 306.75,-97 306.75,-97 231.25,-97 231.25,-97 225.25,-97 219.25,-91 219.25,-85 219.25,-85 219.25,-57 219.25,-57 219.25,-51 225.25,-45 231.25,-45"/>
<text text-anchor="middle" x="269" y="-84.45" font-family="Helvetica,sans-Serif" font-weight="bold" font-size="9.00">admin</text>
</g>
<g id="clust6" class="cluster">
<title>cluster_src/modules/database</title>
<path fill="#ffffff" stroke="black" stroke-width="2" d="M688,-54C688,-54 776.25,-54 776.25,-54 782.25,-54 788.25,-60 788.25,-66 788.25,-66 788.25,-94 788.25,-94 788.25,-100 782.25,-106 776.25,-106 776.25,-106 688,-106 688,-106 682,-106 676,-100 676,-94 676,-94 676,-66 676,-66 676,-60 682,-54 688,-54"/>
<text text-anchor="middle" x="732.12" y="-93.45" font-family="Helvetica,sans-Serif" font-weight="bold" font-size="9.00">database</text>
</g>
<g id="clust7" class="cluster">
<title>cluster_src/modules/element&#45;summary</title>
<path fill="#ffffff" stroke="black" stroke-width="2" d="M338.75,-66C338.75,-66 462.25,-66 462.25,-66 468.25,-66 474.25,-72 474.25,-78 474.25,-78 474.25,-106 474.25,-106 474.25,-112 468.25,-118 462.25,-118 462.25,-118 338.75,-118 338.75,-118 332.75,-118 326.75,-112 326.75,-106 326.75,-106 326.75,-78 326.75,-78 326.75,-72 332.75,-66 338.75,-66"/>
<text text-anchor="middle" x="400.5" y="-105.45" font-family="Helvetica,sans-Serif" font-weight="bold" font-size="9.00">element&#45;summary</text>
</g>
<g id="clust8" class="cluster">
<title>cluster_src/modules/element</title>
<path fill="#ffffff" stroke="black" stroke-width="2" d="M533.62,-114C533.62,-114 616.62,-114 616.62,-114 622.62,-114 628.62,-120 628.62,-126 628.62,-126 628.62,-154 628.62,-154 628.62,-160 622.62,-166 616.62,-166 616.62,-166 533.62,-166 533.62,-166 527.62,-166 521.62,-160 521.62,-154 521.62,-154 521.62,-126 521.62,-126 521.62,-120 527.62,-114 533.62,-114"/>
<text text-anchor="middle" x="575.12" y="-153.45" font-family="Helvetica,sans-Serif" font-weight="bold" font-size="9.00">element</text>
</g>
<g id="clust9" class="cluster">
<title>cluster_src/modules/user</title>
<path fill="#ffffff" stroke="black" stroke-width="2" d="M541.12,-184C541.12,-184 609.12,-184 609.12,-184 615.12,-184 621.12,-190 621.12,-196 621.12,-196 621.12,-224 621.12,-224 621.12,-230 615.12,-236 609.12,-236 609.12,-236 541.12,-236 541.12,-236 535.12,-236 529.12,-230 529.12,-224 529.12,-224 529.12,-196 529.12,-196 529.12,-190 535.12,-184 541.12,-184"/>
<text text-anchor="middle" x="575.12" y="-223.45" font-family="Helvetica,sans-Serif" font-weight="bold" font-size="9.00">user</text>
</g>
<g id="clust10" class="cluster">
<title>cluster_src/modules/workshop&#45;recommendation</title>
<path fill="#ffffff" stroke="black" stroke-width="2" d="M494.25,-54C494.25,-54 656,-54 656,-54 662,-54 668,-60 668,-66 668,-66 668,-94 668,-94 668,-100 662,-106 656,-106 656,-106 494.25,-106 494.25,-106 488.25,-106 482.25,-100 482.25,-94 482.25,-94 482.25,-66 482.25,-66 482.25,-60 488.25,-54 494.25,-54"/>
<text text-anchor="middle" x="575.12" y="-93.45" font-family="Helvetica,sans-Serif" font-weight="bold" font-size="9.00">workshop&#45;recommendation</text>
</g>
<g id="clust11" class="cluster">
<title>cluster_src/modules/workshop</title>
<path fill="#ffffff" stroke="black" stroke-width="2" d="M355.62,-126C355.62,-126 445.38,-126 445.38,-126 451.38,-126 457.38,-132 457.38,-138 457.38,-138 457.38,-166 457.38,-166 457.38,-172 451.38,-178 445.38,-178 445.38,-178 355.62,-178 355.62,-178 349.62,-178 343.62,-172 343.62,-166 343.62,-166 343.62,-138 343.62,-138 343.62,-132 349.62,-126 355.62,-126"/>
<text text-anchor="middle" x="400.5" y="-165.45" font-family="Helvetica,sans-Serif" font-weight="bold" font-size="9.00">workshop</text>
</g>
<!-- src/app.module.ts -->
<g id="node1" class="node">
<title>src/app.module.ts</title>
<g id="a_node1"><a xlink:href="src/app.module.ts" xlink:title="app.module.ts">
<path fill="#ddfeff" stroke="black" d="M83.83,-108.88C83.83,-108.88 21.92,-108.88 21.92,-108.88 18.96,-108.88 16,-105.92 16,-102.96 16,-102.96 16,-97.04 16,-97.04 16,-94.08 18.96,-91.12 21.92,-91.12 21.92,-91.12 83.83,-91.12 83.83,-91.12 86.79,-91.12 89.75,-94.08 89.75,-97.04 89.75,-97.04 89.75,-102.96 89.75,-102.96 89.75,-105.92 86.79,-108.88 83.83,-108.88"/>
<text text-anchor="start" x="24" y="-96.33" font-family="Helvetica,sans-Serif" font-size="9.00">app.module.ts</text>
</a>
</g>
</g>
<!-- src/auth/auth.module.ts -->
<g id="node2" class="node">
<title>src/auth/auth.module.ts</title>
<g id="a_node2"><a xlink:href="src/auth/auth.module.ts" xlink:title="auth.module.ts">
<path fill="#ddfeff" stroke="black" d="M182.58,-78.88C182.58,-78.88 118.42,-78.88 118.42,-78.88 115.46,-78.88 112.5,-75.92 112.5,-72.96 112.5,-72.96 112.5,-67.04 112.5,-67.04 112.5,-64.08 115.46,-61.12 118.42,-61.12 118.42,-61.12 182.58,-61.12 182.58,-61.12 185.54,-61.12 188.5,-64.08 188.5,-67.04 188.5,-67.04 188.5,-72.96 188.5,-72.96 188.5,-75.92 185.54,-78.88 182.58,-78.88"/>
<text text-anchor="start" x="120.5" y="-66.33" font-family="Helvetica,sans-Serif" font-size="9.00">auth.module.ts</text>
</a>
</g>
</g>
<!-- src/app.module.ts&#45;&gt;src/auth/auth.module.ts -->
<g id="edge1" class="edge">
<title>src/app.module.ts&#45;&gt;src/auth/auth.module.ts</title>
<path fill="none" stroke="#000000" stroke-width="2" stroke-opacity="0.200000" d="M83.61,-90.67C92.33,-87.93 102,-84.9 111.18,-82.02"/>
<polygon fill="#000000" fill-opacity="0.200000" stroke="#000000" stroke-width="2" stroke-opacity="0.200000" points="111.8,-84.03 116.9,-80.23 110.54,-80.02 111.8,-84.03"/>
</g>
<!-- src/graphql/graphql.module.ts -->
<g id="node3" class="node">
<title>src/graphql/graphql.module.ts</title>
<g id="a_node3"><a xlink:href="src/graphql/graphql.module.ts" xlink:title="graphql.module.ts">
<path fill="#ddfeff" stroke="black" d="M189.33,-138.88C189.33,-138.88 111.67,-138.88 111.67,-138.88 108.71,-138.88 105.75,-135.92 105.75,-132.96 105.75,-132.96 105.75,-127.04 105.75,-127.04 105.75,-124.08 108.71,-121.12 111.67,-121.12 111.67,-121.12 189.33,-121.12 189.33,-121.12 192.29,-121.12 195.25,-124.08 195.25,-127.04 195.25,-127.04 195.25,-132.96 195.25,-132.96 195.25,-135.92 192.29,-138.88 189.33,-138.88"/>
<text text-anchor="start" x="113.75" y="-126.33" font-family="Helvetica,sans-Serif" font-size="9.00">graphql.module.ts</text>
</a>
</g>
</g>
<!-- src/app.module.ts&#45;&gt;src/graphql/graphql.module.ts -->
<g id="edge2" class="edge">
<title>src/app.module.ts&#45;&gt;src/graphql/graphql.module.ts</title>
<path fill="none" stroke="#000000" stroke-width="2" stroke-opacity="0.200000" d="M83.61,-109.33C92.33,-112.07 102,-115.1 111.18,-117.98"/>
<polygon fill="#000000" fill-opacity="0.200000" stroke="#000000" stroke-width="2" stroke-opacity="0.200000" points="110.54,-119.98 116.9,-119.77 111.8,-115.97 110.54,-119.98"/>
</g>
<!-- src/modules/admin/admin.module.ts -->
<g id="node4" class="node">
<title>src/modules/admin/admin.module.ts</title>
<g id="a_node4"><a xlink:href="src/modules/admin/admin.module.ts" xlink:title="admin.module.ts">
<path fill="#ddfeff" stroke="black" d="M304.83,-70.88C304.83,-70.88 233.17,-70.88 233.17,-70.88 230.21,-70.88 227.25,-67.92 227.25,-64.96 227.25,-64.96 227.25,-59.04 227.25,-59.04 227.25,-56.08 230.21,-53.12 233.17,-53.12 233.17,-53.12 304.83,-53.12 304.83,-53.12 307.79,-53.12 310.75,-56.08 310.75,-59.04 310.75,-59.04 310.75,-64.96 310.75,-64.96 310.75,-67.92 307.79,-70.88 304.83,-70.88"/>
<text text-anchor="start" x="235.25" y="-58.33" font-family="Helvetica,sans-Serif" font-size="9.00">admin.module.ts</text>
</a>
</g>
</g>
<!-- src/graphql/graphql.module.ts&#45;&gt;src/modules/admin/admin.module.ts -->
<g id="edge3" class="edge">
<title>src/graphql/graphql.module.ts&#45;&gt;src/modules/admin/admin.module.ts</title>
<path fill="none" stroke="#000000" stroke-width="2" stroke-opacity="0.200000" d="M176.5,-120.65C185.16,-117.08 194.81,-112.72 203.25,-108 219.75,-98.77 237.15,-86.24 249.75,-76.58"/>
<polygon fill="#000000" fill-opacity="0.200000" stroke="#000000" stroke-width="2" stroke-opacity="0.200000" points="250.73,-78.48 254.18,-73.13 248.16,-75.16 250.73,-78.48"/>
</g>
<!-- src/modules/database/database.module.ts -->
<g id="node5" class="node">
<title>src/modules/database/database.module.ts</title>
<g id="a_node5"><a xlink:href="src/modules/database/database.module.ts" xlink:title="database.module.ts">
<path fill="#ddfeff" stroke="black" d="M774.33,-79.88C774.33,-79.88 689.92,-79.88 689.92,-79.88 686.96,-79.88 684,-76.92 684,-73.96 684,-73.96 684,-68.04 684,-68.04 684,-65.08 686.96,-62.12 689.92,-62.12 689.92,-62.12 774.33,-62.12 774.33,-62.12 777.29,-62.12 780.25,-65.08 780.25,-68.04 780.25,-68.04 780.25,-73.96 780.25,-73.96 780.25,-76.92 777.29,-79.88 774.33,-79.88"/>
<text text-anchor="start" x="692" y="-67.33" font-family="Helvetica,sans-Serif" font-size="9.00">database.module.ts</text>
</a>
</g>
</g>
<!-- src/graphql/graphql.module.ts&#45;&gt;src/modules/database/database.module.ts -->
<g id="edge4" class="edge">
<title>src/graphql/graphql.module.ts&#45;&gt;src/modules/database/database.module.ts</title>
<path fill="none" stroke="#000000" stroke-width="2" stroke-opacity="0.200000" d="M187.25,-120.69C193.41,-117.58 199.14,-113.46 203.25,-108 221.01,-84.38 190.27,-62.8 211.25,-42 247.93,-5.63 275.17,-31.89 326.75,-29 478.18,-20.5 522.82,14.88 668,-29 685.53,-34.3 702.65,-46.24 714.63,-56.04"/>
<polygon fill="#000000" fill-opacity="0.200000" stroke="#000000" stroke-width="2" stroke-opacity="0.200000" points="713.14,-57.54 719.07,-59.83 715.87,-54.34 713.14,-57.54"/>
</g>
<!-- src/modules/element&#45;summary/element&#45;summary.module.ts -->
<g id="node6" class="node">
<title>src/modules/element&#45;summary/element&#45;summary.module.ts</title>
<g id="a_node6"><a xlink:href="src/modules/element-summary/element-summary.module.ts" xlink:title="element&#45;summary.module.ts">
<path fill="#ddfeff" stroke="black" d="M460.33,-91.88C460.33,-91.88 340.67,-91.88 340.67,-91.88 337.71,-91.88 334.75,-88.92 334.75,-85.96 334.75,-85.96 334.75,-80.04 334.75,-80.04 334.75,-77.08 337.71,-74.12 340.67,-74.12 340.67,-74.12 460.33,-74.12 460.33,-74.12 463.29,-74.12 466.25,-77.08 466.25,-80.04 466.25,-80.04 466.25,-85.96 466.25,-85.96 466.25,-88.92 463.29,-91.88 460.33,-91.88"/>
<text text-anchor="start" x="342.75" y="-79.33" font-family="Helvetica,sans-Serif" font-size="9.00">element&#45;summary.module.ts</text>
</a>
</g>
</g>
<!-- src/graphql/graphql.module.ts&#45;&gt;src/modules/element&#45;summary/element&#45;summary.module.ts -->
<g id="edge5" class="edge">
<title>src/graphql/graphql.module.ts&#45;&gt;src/modules/element&#45;summary/element&#45;summary.module.ts</title>
<path fill="none" stroke="#000000" stroke-width="2" stroke-opacity="0.200000" d="M195.58,-122.46C229.35,-116.6 277.05,-108.13 318.75,-100 328.12,-98.17 338.08,-96.15 347.68,-94.15"/>
<polygon fill="#000000" fill-opacity="0.200000" stroke="#000000" stroke-width="2" stroke-opacity="0.200000" points="347.98,-96.23 353.42,-92.95 347.12,-92.12 347.98,-96.23"/>
</g>
<!-- src/modules/element/element.module.ts -->
<g id="node7" class="node">
<title>src/modules/element/element.module.ts</title>
<g id="a_node7"><a xlink:href="src/modules/element/element.module.ts" xlink:title="element.module.ts">
<path fill="#ddfeff" stroke="black" d="M614.71,-139.88C614.71,-139.88 535.54,-139.88 535.54,-139.88 532.58,-139.88 529.62,-136.92 529.62,-133.96 529.62,-133.96 529.62,-128.04 529.62,-128.04 529.62,-125.08 532.58,-122.12 535.54,-122.12 535.54,-122.12 614.71,-122.12 614.71,-122.12 617.67,-122.12 620.62,-125.08 620.62,-128.04 620.62,-128.04 620.62,-133.96 620.62,-133.96 620.62,-136.92 617.67,-139.88 614.71,-139.88"/>
<text text-anchor="start" x="537.62" y="-127.33" font-family="Helvetica,sans-Serif" font-size="9.00">element.module.ts</text>
</a>
</g>
</g>
<!-- src/graphql/graphql.module.ts&#45;&gt;src/modules/element/element.module.ts -->
<g id="edge6" class="edge">
<title>src/graphql/graphql.module.ts&#45;&gt;src/modules/element/element.module.ts</title>
<path fill="none" stroke="#000000" stroke-width="2" stroke-opacity="0.200000" d="M173.64,-139.37C226.25,-160.37 362.73,-207.36 474.25,-181 503.44,-174.1 533.82,-157.28 553.29,-145.05"/>
<polygon fill="#000000" fill-opacity="0.200000" stroke="#000000" stroke-width="2" stroke-opacity="0.200000" points="554.23,-146.95 558.14,-141.93 551.96,-143.41 554.23,-146.95"/>
</g>
<!-- src/modules/user/user.module.ts -->
<g id="node8" class="node">
<title>src/modules/user/user.module.ts</title>
<g id="a_node8"><a xlink:href="src/modules/user/user.module.ts" xlink:title="user.module.ts">
<path fill="#ddfeff" stroke="black" d="M607.21,-209.88C607.21,-209.88 543.04,-209.88 543.04,-209.88 540.08,-209.88 537.12,-206.92 537.12,-203.96 537.12,-203.96 537.12,-198.04 537.12,-198.04 537.12,-195.08 540.08,-192.12 543.04,-192.12 543.04,-192.12 607.21,-192.12 607.21,-192.12 610.17,-192.12 613.12,-195.08 613.12,-198.04 613.12,-198.04 613.12,-203.96 613.12,-203.96 613.12,-206.92 610.17,-209.88 607.21,-209.88"/>
<text text-anchor="start" x="545.12" y="-197.32" font-family="Helvetica,sans-Serif" font-size="9.00">user.module.ts</text>
</a>
</g>
</g>
<!-- src/graphql/graphql.module.ts&#45;&gt;src/modules/user/user.module.ts -->
<g id="edge7" class="edge">
<title>src/graphql/graphql.module.ts&#45;&gt;src/modules/user/user.module.ts</title>
<path fill="none" stroke="#000000" stroke-width="2" stroke-opacity="0.200000" d="M161.66,-139.16C172.92,-148.76 192.04,-163.47 211.25,-171 318.62,-213.11 457.26,-210.44 528.06,-205.42"/>
<polygon fill="#000000" fill-opacity="0.200000" stroke="#000000" stroke-width="2" stroke-opacity="0.200000" points="527.92,-207.54 533.75,-205 527.61,-203.35 527.92,-207.54"/>
</g>
<!-- src/modules/workshop/workshop.module.ts -->
<g id="node9" class="node">
<title>src/modules/workshop/workshop.module.ts</title>
<g id="a_node9"><a xlink:href="src/modules/workshop/workshop.module.ts" xlink:title="workshop.module.ts">
<path fill="#ddfeff" stroke="black" d="M443.46,-151.88C443.46,-151.88 357.54,-151.88 357.54,-151.88 354.58,-151.88 351.62,-148.92 351.62,-145.96 351.62,-145.96 351.62,-140.04 351.62,-140.04 351.62,-137.08 354.58,-134.12 357.54,-134.12 357.54,-134.12 443.46,-134.12 443.46,-134.12 446.42,-134.12 449.38,-137.08 449.38,-140.04 449.38,-140.04 449.38,-145.96 449.38,-145.96 449.38,-148.92 446.42,-151.88 443.46,-151.88"/>
<text text-anchor="start" x="359.62" y="-139.32" font-family="Helvetica,sans-Serif" font-size="9.00">workshop.module.ts</text>
</a>
</g>
</g>
<!-- src/graphql/graphql.module.ts&#45;&gt;src/modules/workshop/workshop.module.ts -->
<g id="edge8" class="edge">
<title>src/graphql/graphql.module.ts&#45;&gt;src/modules/workshop/workshop.module.ts</title>
<path fill="none" stroke="#000000" stroke-width="2" stroke-opacity="0.200000" d="M195.55,-132.31C236.44,-134.45 297.55,-137.66 342.21,-140"/>
<polygon fill="#000000" fill-opacity="0.200000" stroke="#000000" stroke-width="2" stroke-opacity="0.200000" points="342.07,-142.09 348.17,-140.31 342.29,-137.9 342.07,-142.09"/>
</g>
<!-- src/modules/admin/admin.module.ts&#45;&gt;src/modules/database/database.module.ts -->
<g id="edge9" class="edge">
<title>src/modules/admin/admin.module.ts&#45;&gt;src/modules/database/database.module.ts</title>
<path fill="none" stroke="#000000" stroke-width="2" stroke-opacity="0.200000" d="M285.27,-52.81C296.34,-46.71 311.93,-39.23 326.75,-36 348.95,-31.16 649.6,-32.31 668,-37 683.44,-40.93 699.21,-49.43 711.13,-56.95"/>
<polygon fill="#000000" fill-opacity="0.200000" stroke="#000000" stroke-width="2" stroke-opacity="0.200000" points="709.67,-58.5 715.84,-60.03 711.97,-54.98 709.67,-58.5"/>
</g>
<!-- src/modules/admin/admin.module.ts&#45;&gt;src/modules/element&#45;summary/element&#45;summary.module.ts -->
<g id="edge10" class="edge">
<title>src/modules/admin/admin.module.ts&#45;&gt;src/modules/element&#45;summary/element&#45;summary.module.ts</title>
<path fill="none" stroke="#000000" stroke-width="2" stroke-opacity="0.200000" d="M310.97,-68.64C318,-69.78 325.47,-71 332.97,-72.21"/>
<polygon fill="#000000" fill-opacity="0.200000" stroke="#000000" stroke-width="2" stroke-opacity="0.200000" points="332.51,-74.26 338.77,-73.15 333.18,-70.12 332.51,-74.26"/>
</g>
<!-- src/modules/admin/admin.module.ts&#45;&gt;src/modules/element/element.module.ts -->
<g id="edge11" class="edge">
<title>src/modules/admin/admin.module.ts&#45;&gt;src/modules/element/element.module.ts</title>
<path fill="none" stroke="#000000" stroke-width="2" stroke-opacity="0.200000" d="M296.16,-52.63C338.88,-39.19 423.88,-20.42 474.25,-63 490.1,-76.4 468.04,-93.87 482.25,-109 492.2,-119.59 506.27,-125.49 520.41,-128.67"/>
<polygon fill="#000000" fill-opacity="0.200000" stroke="#000000" stroke-width="2" stroke-opacity="0.200000" points="519.93,-130.72 526.22,-129.76 520.71,-126.59 519.93,-130.72"/>
</g>
<!-- src/modules/element&#45;summary/element&#45;summary.module.ts&#45;&gt;src/modules/database/database.module.ts -->
<g id="edge12" class="edge">
<title>src/modules/element&#45;summary/element&#45;summary.module.ts&#45;&gt;src/modules/database/database.module.ts</title>
<path fill="none" stroke="#000000" stroke-width="2" stroke-opacity="0.200000" d="M419.19,-73.73C435.17,-65.91 459.59,-55.33 482.25,-51 563.34,-35.52 586.41,-38.38 668,-51 678.37,-52.6 689.37,-55.61 699.23,-58.81"/>
<polygon fill="#000000" fill-opacity="0.200000" stroke="#000000" stroke-width="2" stroke-opacity="0.200000" points="698.34,-60.72 704.69,-60.66 699.69,-56.74 698.34,-60.72"/>
</g>
<!-- src/modules/element&#45;summary/element&#45;summary.module.ts&#45;&gt;src/modules/element/element.module.ts -->
<g id="edge13" class="edge">
<title>src/modules/element&#45;summary/element&#45;summary.module.ts&#45;&gt;src/modules/element/element.module.ts</title>
<path fill="none" stroke="#000000" stroke-width="2" stroke-opacity="0.200000" d="M428.63,-92.31C444.23,-97.51 464.24,-103.95 482.25,-109 495.59,-112.74 510.14,-116.41 523.64,-119.64"/>
<polygon fill="#000000" fill-opacity="0.200000" stroke="#000000" stroke-width="2" stroke-opacity="0.200000" points="523.06,-121.67 529.39,-121.01 524.03,-117.58 523.06,-121.67"/>
</g>
<!-- src/modules/element/element.module.ts&#45;&gt;src/modules/database/database.module.ts -->
<g id="edge14" class="edge">
<title>src/modules/element/element.module.ts&#45;&gt;src/modules/database/database.module.ts</title>
<path fill="none" stroke="#000000" stroke-width="2" stroke-opacity="0.200000" d="M620.92,-123.16C636.17,-119.74 653.12,-115.09 668,-109 683.34,-102.72 699.33,-93.06 711.38,-85.05"/>
<polygon fill="#000000" fill-opacity="0.200000" stroke="#000000" stroke-width="2" stroke-opacity="0.200000" points="712.4,-86.89 716.18,-81.78 710.04,-83.42 712.4,-86.89"/>
</g>
<!-- src/modules/element/element.module.ts&#45;&gt;src/modules/user/user.module.ts -->
<g id="edge15" class="edge">
<title>src/modules/element/element.module.ts&#45;&gt;src/modules/user/user.module.ts</title>
<g id="a_edge15"><a xlink:title="no&#45;circular">
<path fill="none" stroke="orange" stroke-width="2" d="M575.12,-140.3C575.12,-151.34 575.12,-162.37 575.12,-173.41"/>
<polygon fill="orange" stroke="orange" stroke-width="2" points="573.03,-182.96 575.13,-188.96 577.23,-182.96 573.03,-182.96"/>
<polyline fill="none" stroke="orange" stroke-width="2" points="575.13,-181.96 575.13,-178.96"/>
<ellipse fill="none" stroke="orange" stroke-width="2" cx="575.13" cy="-175.56" rx="2.4" ry="2.4"/>
</a>
</g>
<text text-anchor="middle" x="553.38" y="-167.37" font-family="Helvetica,sans-Serif" font-size="9.00" fill="orange">no&#45;circular</text>
</g>
<!-- src/modules/user/user.module.ts&#45;&gt;src/modules/database/database.module.ts -->
<g id="edge16" class="edge">
<title>src/modules/user/user.module.ts&#45;&gt;src/modules/database/database.module.ts</title>
<path fill="none" stroke="#000000" stroke-width="2" stroke-opacity="0.200000" d="M613.43,-198.84C631.37,-196.2 652.33,-190.63 668,-179 698.95,-156.03 717.32,-113.02 725.68,-88.78"/>
<polygon fill="#000000" fill-opacity="0.200000" stroke="#000000" stroke-width="2" stroke-opacity="0.200000" points="727.68,-89.44 727.55,-83.09 723.68,-88.14 727.68,-89.44"/>
</g>
<!-- src/modules/user/user.module.ts&#45;&gt;src/modules/element/element.module.ts -->
<g id="edge17" class="edge">
<title>src/modules/user/user.module.ts&#45;&gt;src/modules/element/element.module.ts</title>
<g id="a_edge17"><a xlink:title="no&#45;circular">
<path fill="none" stroke="orange" stroke-width="2" d="M575.12,-191.99C575.12,-180.95 575.12,-169.91 575.12,-158.87"/>
<polygon fill="orange" stroke="orange" stroke-width="2" points="577.23,-149.32 575.13,-143.32 573.03,-149.32 577.23,-149.32"/>
<polyline fill="none" stroke="orange" stroke-width="2" points="575.13,-150.32 575.13,-153.32"/>
<ellipse fill="none" stroke="orange" stroke-width="2" cx="575.13" cy="-156.72" rx="2.4" ry="2.4"/>
</a>
</g>
<text text-anchor="middle" x="596.88" y="-167.32" font-family="Helvetica,sans-Serif" font-size="9.00" fill="orange">no&#45;circular</text>
</g>
<!-- src/modules/workshop/workshop.module.ts&#45;&gt;src/modules/database/database.module.ts -->
<g id="edge19" class="edge">
<title>src/modules/workshop/workshop.module.ts&#45;&gt;src/modules/database/database.module.ts</title>
<path fill="none" stroke="#000000" stroke-width="2" stroke-opacity="0.200000" d="M424.01,-152.34C439.96,-158.43 462.03,-165.82 482.25,-169 523.03,-175.4 631.76,-188.76 668,-169 699.37,-151.89 717.5,-111.77 725.72,-88.51"/>
<polygon fill="#000000" fill-opacity="0.200000" stroke="#000000" stroke-width="2" stroke-opacity="0.200000" points="727.62,-89.46 727.53,-83.11 723.64,-88.13 727.62,-89.46"/>
</g>
<!-- src/modules/workshop/workshop.module.ts&#45;&gt;src/modules/user/user.module.ts -->
<g id="edge20" class="edge">
<title>src/modules/workshop/workshop.module.ts&#45;&gt;src/modules/user/user.module.ts</title>
<path fill="none" stroke="#000000" stroke-width="2" stroke-opacity="0.200000" d="M419.71,-152.28C435.83,-160.22 460.16,-171.5 482.25,-179 497.05,-184.02 513.56,-188.36 528.46,-191.81"/>
<polygon fill="#000000" fill-opacity="0.200000" stroke="#000000" stroke-width="2" stroke-opacity="0.200000" points="527.76,-193.81 534.07,-193.08 528.68,-189.71 527.76,-193.81"/>
</g>
<!-- src/modules/workshop&#45;recommendation/workshop&#45;recommendation.module.ts -->
<g id="node10" class="node">
<title>src/modules/workshop&#45;recommendation/workshop&#45;recommendation.module.ts</title>
<g id="a_node10"><a xlink:href="src/modules/workshop-recommendation/workshop-recommendation.module.ts" xlink:title="workshop&#45;recommendation.module.ts">
<path fill="#ddfeff" stroke="black" d="M654.08,-79.88C654.08,-79.88 496.17,-79.88 496.17,-79.88 493.21,-79.88 490.25,-76.92 490.25,-73.96 490.25,-73.96 490.25,-68.04 490.25,-68.04 490.25,-65.08 493.21,-62.12 496.17,-62.12 496.17,-62.12 654.08,-62.12 654.08,-62.12 657.04,-62.12 660,-65.08 660,-68.04 660,-68.04 660,-73.96 660,-73.96 660,-76.92 657.04,-79.88 654.08,-79.88"/>
<text text-anchor="start" x="498.25" y="-67.33" font-family="Helvetica,sans-Serif" font-size="9.00">workshop&#45;recommendation.module.ts</text>
</a>
</g>
</g>
<!-- src/modules/workshop&#45;recommendation/workshop&#45;recommendation.module.ts&#45;&gt;src/modules/database/database.module.ts -->
<g id="edge18" class="edge">
<title>src/modules/workshop&#45;recommendation/workshop&#45;recommendation.module.ts&#45;&gt;src/modules/database/database.module.ts</title>
<path fill="none" stroke="#000000" stroke-width="2" stroke-opacity="0.200000" d="M660.43,-71C665.27,-71 670.09,-71 674.78,-71"/>
<polygon fill="#000000" fill-opacity="0.200000" stroke="#000000" stroke-width="2" stroke-opacity="0.200000" points="674.63,-73.1 680.63,-71 674.63,-68.9 674.63,-73.1"/>
</g>
</g>
</svg>
